<?xml version="1.0" encoding="utf-8" ?>
<!DOCTYPE svg PUBLIC "-//W3C//DTD SVG 1.1//EN" "http://www.w3.org/Graphics/SVG/1.1/DTD/svg11.dtd">
<svg version="1.1" id="svg_base" x="18.990000px" y="12.299999px" width="454.869995px" height="512.150024px" viewBox="18.990000 12.299999 454.869995 512.150024" enable-background="new 18.990000 12.299999 454.869995 512.150024" xml:space="preserve" ldp_pixel2meter="0.002932">
    <g ldp_layer_name="poly_A">
        <path fill="none" ldp_poly="2" ldp_3dx="109.182663" ldp_3dy="-89.859261" ldp_3dz="102.519897" ldp_3drx="-0.723318" ldp_3dry="-0.690514" ldp_3drz="-0.000402" ldp_3drw="0.000439" ldp_cylinder_dir="0" stroke="#231F20" stroke-width="0.680000" stroke-linecap="round" stroke-linejoin="round" stroke-miterlimit="10.000000" d="M159.65,107.59L159.79,106.55L159.93,105.50L160.09,104.45L160.26,103.41L160.45,102.37L160.68,101.34L160.93,100.31L161.22,99.29L161.55,98.29L161.91,97.35L162.32,96.42L161.46,95.77L160.61,95.10L159.77,94.42L158.96,93.72L158.16,93.00L157.38,92.26L156.63,91.50L155.89,90.72L155.19,89.92L154.51,89.10L153.88,88.28L153.27,87.45L152.71,86.59L152.17,85.71L151.67,84.80L151.21,83.89L150.78,82.95L150.40,81.99L150.07,81.03L149.78,80.04L149.54,78.99L149.35,77.93L149.21,76.87L149.11,75.80L149.05,74.73L149.04,73.66L149.05,72.60L149.09,71.53L149.12,70.52L149.18,69.51L149.26,68.50L149.37,67.50L149.49,66.50L149.65,65.50L149.82,64.51L150.03,63.48L150.25,62.46L150.50,61.44L150.77,60.43L151.07,59.42L151.38,58.42L151.71,57.43L152.07,56.43L152.45,55.44L152.84,54.45L153.25,53.47L153.67,52.50L154.10,51.53L154.55,50.56L154.99,49.59L155.46,48.62L155.92,47.67L156.37,46.75L156.82,45.84L157.28,44.93L157.73,44.02L158.19,43.10L158.65,42.19L159.11,41.28L158.19,40.96L157.28,40.64L156.36,40.32L155.43,40.01L154.51,39.71L153.59,39.40L152.66,39.11L151.73,38.82L150.80,38.53L149.87,38.24L148.90,37.95L147.92,37.66L146.94,37.38L145.95,37.10L144.97,36.83L143.99,36.56L143.00,36.30L142.01,36.04L141.02,35.79L140.03,35.54L139.04,35.30L138.04,35.06L137.06,34.83L136.06,34.60L135.06,34.38L134.07,34.17L133.07,33.95L132.07,33.75L131.07,33.55L130.07,33.36L129.06,33.16L128.05,32.98L127.09,32.81L126.12,32.64L125.14,32.48L124.17,32.32L123.20,32.17L122.22,32.02L121.24,31.88L120.27,31.74L119.29,31.60L118.32,31.47L117.30,31.34L116.29,31.23L115.28,31.10L114.26,30.99L113.24,30.89L112.23,30.78L111.19,30.68L110.15,30.60L109.10,30.51L108.06,30.43L107.01,30.36L105.97,30.29L104.92,30.22L103.88,30.16L102.83,30.10L101.79,30.05L100.77,30.00L99.75,29.95L98.73,29.91L97.71,29.86L96.69,29.83L95.67,29.79L94.65,29.76L93.63,29.73L92.61,29.71L91.59,29.68L90.57,29.66L89.55,29.64L88.53,29.62L87.51,29.60L86.49,29.58L85.47,29.57L84.45,29.56L83.43,29.54L82.41,29.53L58.64,29.53L48.24,29.14L43.14,29.14L43.19,228.50L91.74,228.50L140.28,228.51L142.54,228.50L153.89,228.50L156.14,228.50L156.64,211.04L157.11,193.94L159.51,108.64L159.65,107.59" ldp_corner="11 70 150 151 156" />
        <path fill="none" ldp_poly="12" ldp_3dx="85.172432" ldp_3dy="-23.741222" ldp_3dz="268.042297" ldp_3drx="0.541335" ldp_3dry="0.572403" ldp_3drz="-0.416190" ldp_3drw="0.453980" ldp_cylinder_dir="0" stroke="#231F20" stroke-width="0.680000" stroke-linecap="round" stroke-linejoin="round" stroke-miterlimit="10.000000" d="M379.17,264.60L380.13,264.60L381.11,264.59L382.08,264.58L383.05,264.58L384.02,264.56L384.99,264.55L385.97,264.54L386.94,264.52L387.91,264.51L388.93,264.48L389.95,264.46L390.97,264.44L391.99,264.42L393.01,264.39L394.03,264.36L395.05,264.33L396.07,264.30L397.09,264.27L398.11,264.24L399.13,264.21L400.15,264.17L401.17,264.13L402.19,264.10L403.21,264.05L404.23,264.01L405.25,263.97L406.27,263.93L407.29,263.89L408.31,263.84L409.33,263.80L410.35,263.75L411.37,263.70L412.39,263.66L413.40,263.60L414.43,263.55L415.44,263.50L416.46,263.45L417.48,263.40L418.50,263.34L419.52,263.29L420.54,263.23L421.56,263.18L422.58,263.12L423.59,263.07L424.61,263.01L425.63,262.95L426.65,262.90L427.67,262.84L428.69,262.78L429.71,262.72L430.72,262.66L431.74,262.60L432.75,262.54L433.77,262.48L434.78,262.42L435.79,262.36L436.80,262.30L437.82,262.24L438.83,262.18L439.84,262.12L440.86,262.06L441.88,262.00L442.90,261.94L443.92,261.88L444.94,261.82L445.96,261.76L446.98,261.70L448.00,261.64L449.02,261.58L450.03,261.52L451.05,261.46L452.07,261.40L453.09,261.35L454.11,261.29L455.13,261.23L456.15,261.17L456.30,260.16L456.46,259.15L456.63,258.14L456.81,257.13L456.98,256.13L457.16,255.12L457.34,254.11L457.53,253.11L457.72,252.10L457.91,251.10L458.11,250.09L458.30,249.09L458.51,248.09L458.71,247.09L458.92,246.09L459.13,245.10L459.34,244.10L459.55,243.10L459.77,242.10L459.99,241.10L460.21,240.11L460.43,239.11L460.66,238.12L460.89,237.12L461.11,236.13L461.34,235.13L461.58,234.14L461.81,233.14L462.04,232.15L462.27,231.16L462.51,230.17L462.74,229.17L462.98,228.18L463.22,227.19L463.48,226.21L463.75,225.22L464.02,224.24L464.28,223.26L464.55,222.28L464.82,221.30L465.09,220.32L465.36,219.34L465.63,218.37L465.90,217.39L466.18,216.40L466.46,215.42L466.75,214.44L467.03,213.46L467.32,212.48L467.60,211.50L467.90,210.53L468.19,209.55L468.49,208.57L468.79,207.60L469.10,206.63L469.41,205.65L469.73,204.68L470.04,203.71L380.81,192.40L381.01,193.39L381.18,194.39L381.31,195.40L381.41,196.41L381.47,197.42L381.49,198.43L381.47,199.44L381.42,200.45L381.32,201.46L381.18,202.46L381.00,203.46L380.78,204.45L380.52,205.44L380.22,206.41L379.88,207.37L379.51,208.31L379.10,209.24L378.49,210.14L377.85,211.00L377.17,211.84L376.45,212.64L375.70,213.41L374.91,214.13L374.09,214.81L373.24,215.44L372.36,216.03L371.46,216.57L370.54,217.05L369.62,217.49L368.68,217.89L367.72,218.24L366.75,218.56L365.77,218.83L364.78,219.08L363.79,219.29L362.79,219.47L361.78,219.63L360.78,219.77L359.76,219.88L358.75,219.98L357.73,220.05L356.71,220.13L355.70,220.18L354.68,220.22L353.66,220.27L352.64,220.30L351.62,220.33L350.60,220.36L349.58,220.40L348.56,220.43L349.13,264.97L354.23,264.91L378.19,264.60L379.17,264.60" ldp_corner="76 134 135 185 186" />
        <path fill="none" ldp_poly="22" ldp_3dx="28.895561" ldp_3dy="-227.164581" ldp_3dz="274.778656" ldp_3drx="0.591965" ldp_3dry="0.434014" ldp_3drz="-0.566614" ldp_3drw="0.374377" ldp_cylinder_dir="0" stroke="#231F20" stroke-width="0.680000" stroke-linecap="round" stroke-linejoin="round" stroke-miterlimit="10.000000" d="M168.05,267.36L168.34,266.43L168.62,265.50L168.90,264.58L169.17,263.65L169.44,262.71L169.71,261.78L169.97,260.85L170.23,259.91L170.48,258.98L170.75,257.99L171.01,257.00L171.26,256.01L171.51,255.02L171.76,254.03L172.01,253.04L172.24,252.05L172.48,251.06L172.71,250.06L172.93,249.07L173.15,248.07L173.37,247.07L173.58,246.08L173.79,245.07L173.99,244.07L174.19,243.07L174.38,242.07L174.57,241.07L174.75,240.06L174.93,239.06L175.10,238.06L175.27,237.05L175.44,236.04L175.60,235.03L175.75,234.02L175.90,233.01L176.04,232.00L176.18,230.99L176.31,229.98L176.44,228.97L176.56,227.96L176.68,226.94L176.79,225.93L176.90,224.91L177.00,223.90L177.10,222.88L177.19,221.87L177.28,220.85L177.36,219.83L177.43,218.81L177.50,217.80L177.57,216.78L177.63,215.76L177.68,214.75L177.73,213.73L177.78,212.71L177.81,211.69L177.84,210.67L177.87,209.65L177.89,208.63L177.90,207.61L177.91,206.59L177.91,196.93L165.99,196.93L165.99,206.58L165.98,207.66L165.95,208.73L165.92,209.80L165.88,210.87L165.83,211.94L165.78,213.01L165.72,214.08L165.66,215.15L165.59,216.22L165.52,217.29L165.44,218.30L165.36,219.32L165.27,220.34L165.18,221.35L165.09,222.37L164.98,223.39L164.88,224.40L164.76,225.42L164.65,226.43L164.53,227.44L164.40,228.45L164.27,229.47L164.14,230.48L164.00,231.49L163.86,232.50L163.71,233.51L163.57,234.52L163.41,235.53L163.25,236.54L163.09,237.55L162.92,238.55L162.75,239.56L162.57,240.56L162.40,241.57L162.22,242.57L162.03,243.57L161.84,244.58L161.65,245.58L161.46,246.58L161.26,247.59L161.06,248.58L160.86,249.59L160.65,250.58L160.44,251.58L160.23,252.58L160.01,253.58L159.80,254.57L159.57,255.57L159.35,256.56L159.13,257.56L158.90,258.56L158.67,259.55L158.44,260.54L158.20,261.54L157.97,262.53L157.73,263.52L157.49,264.51L167.77,268.29L168.05,267.36" ldp_corner="62 63 121 122" />
        <path fill="none" ldp_poly="30" ldp_3dx="42.074383" ldp_3dy="219.628265" ldp_3dz="278.305298" ldp_3drx="0.519881" ldp_3dry="-0.465776" ldp_3drz="0.568314" ldp_3drw="0.435656" ldp_cylinder_dir="0" stroke="#231F20" stroke-width="0.680000" stroke-linecap="round" stroke-linejoin="round" stroke-miterlimit="10.000000" d="M176.50,98.08L177.36,97.50L178.20,96.87L178.97,96.17L179.66,95.39L180.23,94.53L180.64,93.60L180.87,92.62L180.93,91.64L180.84,90.67L180.62,89.71L180.33,88.77L180.05,87.83L179.78,86.88L179.50,85.94L179.24,84.99L178.99,84.04L178.74,83.09L178.49,82.13L178.25,81.18L178.03,80.22L177.79,79.23L177.57,78.23L177.35,77.23L177.13,76.24L176.93,75.24L176.73,74.24L176.53,73.24L176.35,72.23L176.17,71.23L175.99,70.22L175.82,69.21L175.66,68.21L175.51,67.20L175.36,66.19L175.21,65.18L175.08,64.17L174.95,63.16L174.82,62.14L174.70,61.13L174.59,60.11L174.48,59.10L174.38,58.08L174.28,57.07L174.19,56.05L174.10,55.03L174.02,54.02L173.95,53.00L173.88,51.98L173.81,50.96L173.75,49.95L173.70,48.93L173.65,47.91L173.60,46.89L173.56,45.87L173.52,44.85L173.49,43.83L173.47,42.81L173.44,41.79L173.43,40.77L173.42,39.75L173.40,38.73L173.40,37.71L173.40,36.69L173.40,35.67L173.41,34.65L173.42,33.63L173.42,22.05L164.83,22.05L164.83,31.93L164.86,32.93L164.90,33.93L164.94,34.92L164.98,35.92L165.04,36.92L165.09,37.91L165.15,38.91L165.22,39.90L165.28,40.90L165.36,41.89L165.44,42.91L165.52,43.93L165.61,44.94L165.71,45.96L165.81,46.98L165.91,47.99L166.02,49.01L166.13,50.02L166.25,51.03L166.37,52.04L166.50,53.06L166.64,54.07L166.77,55.08L166.92,56.09L166.98,57.15L167.04,58.20L167.11,59.25L167.19,60.31L167.27,61.36L167.36,62.41L167.46,63.46L167.56,64.51L167.67,65.56L167.79,66.61L167.91,67.62L168.04,68.64L168.18,69.65L168.33,70.66L168.48,71.67L168.64,72.67L168.81,73.68L168.99,74.69L169.18,75.69L169.37,76.69L169.58,77.69L169.80,78.69L170.02,79.68L170.26,80.67L170.51,81.66L170.77,82.65L171.03,83.64L171.31,84.62L171.60,85.59L171.90,86.57L172.21,87.54L172.54,88.51L172.87,89.47L173.22,90.43L173.57,91.39L173.94,92.34L174.32,93.28L174.71,94.23L176.50,98.08" ldp_corner="0 67 68" />
        <path fill="none" ldp_poly="36" ldp_3dx="166.508545" ldp_3dy="-24.795858" ldp_3dz="238.849991" ldp_3drx="-0.529343" ldp_3dry="0.338575" ldp_3drz="0.668394" ldp_3drw="0.398011" ldp_cylinder_dir="0" stroke="#231F20" stroke-width="0.680000" stroke-linecap="round" stroke-linejoin="round" stroke-miterlimit="10.000000" d="M314.91,110.69L314.89,109.69L314.86,108.68L314.83,107.68L314.80,106.68L314.77,105.67L314.74,104.67L314.70,103.67L314.67,102.66L314.62,101.67L314.33,95.72L313.50,84.69L313.46,83.65L313.43,82.61L313.40,81.57L313.39,80.53L313.39,79.49L313.41,78.45L313.44,77.41L313.50,76.36L313.54,75.35L313.59,74.33L313.65,73.31L313.72,72.29L313.79,71.27L313.86,70.25L313.95,69.24L314.03,68.22L314.12,67.20L314.21,66.19L314.31,65.17L314.40,64.16L314.49,63.14L314.59,62.12L314.68,61.06L314.78,60.00L314.87,58.94L314.95,57.89L315.04,56.83L315.11,55.77L315.18,54.71L315.25,53.65L315.31,52.58L315.35,51.52L315.40,40.47L316.41,40.32L317.42,40.17L318.43,40.01L319.44,39.86L320.45,39.71L321.46,39.56L322.46,39.42L323.47,39.27L324.48,39.13L325.49,38.98L326.50,38.83L327.51,38.69L328.52,38.55L329.53,38.41L330.54,38.27L331.56,38.12L332.57,37.98L333.58,37.84L334.59,37.70L335.60,37.56L336.61,37.42L337.62,37.28L338.63,37.14L339.65,37.01L340.65,36.87L341.67,36.73L342.68,36.59L343.69,36.45L344.70,36.31L345.71,36.17L346.72,36.03L347.73,35.90L348.74,35.76L349.75,35.61L350.77,35.47L351.78,35.34L352.79,35.19L353.80,35.05L354.81,34.91L355.82,34.77L356.83,34.63L357.84,34.48L358.85,34.34L359.86,34.19L360.87,34.05L361.88,33.90L362.89,33.75L363.90,33.61L364.91,33.46L365.92,33.31L366.93,33.16L367.94,33.01L368.95,32.85L369.95,32.70L370.96,32.54L371.97,32.39L372.98,32.23L373.98,32.07L374.99,31.91L376.04,31.74L377.09,31.57L378.14,31.40L379.18,31.23L380.23,31.05L381.27,30.88L382.32,30.70L383.36,30.52L384.41,30.34L385.45,30.16L386.46,29.98L387.46,29.79L388.47,29.61L389.47,29.42L390.47,29.24L391.48,29.04L392.48,28.86L393.48,28.66L394.48,28.46L395.48,28.27L396.48,28.07L397.52,27.86L398.55,27.65L399.57,27.44L400.60,27.23L401.63,27.01L402.66,26.79L403.69,26.57L404.72,26.35L405.74,26.12L406.77,25.89L407.77,25.67L408.77,25.46L409.76,25.23L410.76,25.01L411.75,24.78L412.74,24.55L413.74,24.32L414.73,24.09L415.72,23.85L416.71,23.61L417.71,23.36L418.70,23.11L419.68,22.85L420.67,22.60L421.66,22.33L422.64,22.07L423.63,21.80L424.61,21.52L425.59,21.25L426.57,20.96L427.55,20.67L428.53,20.38L429.51,20.08L430.48,19.78L431.45,19.47L432.42,19.16L433.39,18.84L434.36,18.52L435.33,18.19L436.29,17.85L437.26,17.51L438.21,17.16L439.17,16.81L440.11,16.45L441.05,16.09L441.99,15.72L442.93,15.35L443.87,14.97L444.79,14.59L445.73,14.19L446.65,13.80L447.57,13.39L448.49,12.98L448.62,13.99L448.76,15.00L448.90,16.01L449.04,17.02L449.20,18.03L449.36,19.04L449.52,20.05L449.70,21.05L449.88,22.06L450.06,23.06L450.25,24.06L450.45,25.06L450.65,26.06L450.86,27.06L451.07,28.06L451.29,29.05L451.52,30.05L451.75,31.05L451.99,32.03L452.23,33.03L452.48,34.01L452.74,35.01L452.99,35.99L453.26,36.98L453.52,37.96L453.80,38.94L454.08,39.93L454.36,40.91L454.65,41.88L454.95,42.86L455.23,43.80L455.52,44.73L455.82,45.66L456.11,46.59L456.41,47.52L456.72,48.44L457.03,49.37L457.35,50.29L457.66,51.22L457.99,52.14L458.34,53.10L458.69,54.05L459.04,55.01L459.40,55.97L459.77,56.92L460.09,57.79L460.13,57.88L460.50,58.84L460.87,59.80L461.24,60.76L461.61,61.72L461.98,62.67L462.36,63.63L462.74,64.58L463.11,65.54L463.48,66.49L463.85,67.44L464.01,67.83L464.23,68.39L464.60,69.34L464.97,70.30L465.34,71.26L465.70,72.21L466.07,73.17L466.43,74.13L466.78,75.10L467.14,76.06L467.49,77.02L467.83,77.99L467.92,78.26L468.17,78.96L468.49,79.88L468.82,80.80L469.13,81.73L469.43,82.66L469.73,83.58L470.02,84.52L470.30,85.45L470.57,86.39L470.84,87.33L471.11,88.31L471.37,89.29L471.62,90.29L471.85,91.28L472.07,92.28L472.27,93.28L472.46,94.28L472.63,95.33L472.78,96.38L472.91,97.43L473.02,98.49L473.10,99.55L473.14,100.40L473.15,100.61L473.18,101.68L473.18,102.75L473.16,103.81L473.11,104.88L473.07,105.89L473.01,106.91L472.95,107.93L472.86,108.94L472.77,109.96L472.66,110.97L472.53,111.98L472.40,112.99L472.25,114.00L472.08,115.01L471.90,116.01L471.71,117.01L471.51,118.01L471.29,119.01L471.06,120.00L470.81,120.99L470.55,121.98L470.47,122.27L470.29,122.96L470.00,123.94L469.71,124.92L469.41,125.89L469.09,126.86L468.76,127.83L468.42,128.79L468.05,129.79L467.68,130.78L467.29,131.77L466.89,132.76L466.62,133.39L466.48,133.74L466.06,134.72L465.63,135.69L465.18,136.66L464.73,137.62L464.27,138.58L463.81,139.49L463.36,140.35L462.90,141.21L462.44,142.07L461.98,142.93L461.72,143.40L461.51,143.78L461.05,144.63L460.58,145.48L460.11,146.33L459.64,147.18L459.17,148.04L458.69,148.94L458.23,149.85L457.76,150.76L457.30,151.66L456.84,152.57L456.39,153.48L455.94,154.40L455.50,155.31L455.07,156.23L454.63,157.15L454.21,158.08L453.80,159.01L453.38,159.94L453.00,160.88L452.62,161.83L452.25,162.78L451.89,163.73L451.53,164.69L451.18,165.65L450.84,166.61L450.50,167.57L450.16,168.54L449.84,169.50L449.51,170.47L449.20,171.44L448.89,172.41L448.58,173.39L448.28,174.36L447.98,175.34L447.68,176.29L447.40,177.25L447.11,178.21L446.83,179.16L446.55,180.12L446.27,181.08L446.00,182.03L445.73,182.99L445.45,183.95L445.18,184.91L444.27,184.45L443.36,184.00L442.44,183.55L441.52,183.11L440.60,182.68L439.67,182.25L438.74,181.82L437.81,181.41L436.88,181.00L435.94,180.59L435.00,180.19L434.06,179.80L433.12,179.41L432.17,179.03L431.23,178.65L430.28,178.27L429.32,177.91L428.37,177.55L427.42,177.20L426.46,176.85L425.50,176.49L424.53,176.15L423.57,175.82L422.58,175.47L421.59,175.14L420.60,174.81L419.61,174.48L418.61,174.16L417.61,173.84L416.62,173.52L415.62,173.21L414.62,172.91L413.62,172.60L412.64,172.30L411.66,172.01L410.68,171.71L409.71,171.43L408.73,171.14L407.75,170.86L406.77,170.57L405.79,170.30L404.80,170.02L403.82,169.75L402.83,169.48L401.85,169.21L400.87,168.94L399.88,168.68L398.89,168.42L397.90,168.16L396.92,167.91L395.93,167.66L394.94,167.41L393.95,167.16L392.96,166.91L391.96,166.67L390.98,166.43L389.98,166.19L389.03,165.96L388.08,165.73L387.13,165.51L386.18,165.28L385.22,165.07L384.27,164.85L383.32,164.63L382.36,164.41L381.40,164.20L380.45,163.98L379.45,163.76L378.46,163.54L377.46,163.33L376.47,163.10L375.47,162.89L374.47,162.68L373.47,162.46L372.47,162.25L371.47,162.04L370.47,161.83L369.48,161.62L368.48,161.41L367.48,161.21L366.48,161.01L365.48,160.80L364.48,160.60L363.48,160.40L362.48,160.20L361.48,159.99L360.48,159.80L359.48,159.60L358.47,159.40L357.47,159.20L356.47,159.01L355.47,158.81L354.46,158.62L353.46,158.42L352.46,158.23L351.46,158.03L350.46,157.84L349.46,157.65L348.45,157.46L347.45,157.27L346.45,157.08L345.45,156.88L344.45,156.69L343.44,156.50L342.44,156.31L341.44,156.12L340.44,155.93L339.43,155.74L338.43,155.55L337.43,155.36L336.42,155.17L335.42,154.98L334.42,154.79L333.42,154.60L332.42,154.40L331.41,154.21L330.41,154.02L329.41,153.83L328.41,153.64L327.40,153.44L326.40,153.25L325.40,153.06L324.40,152.86L323.40,152.67L322.37,152.46L321.34,152.26L320.31,152.06L319.28,151.85L318.26,151.65L317.23,151.45L316.20,151.24L315.17,151.03L314.14,150.83L313.12,150.62L314.73,138.03L314.82,137.01L314.90,136.00L314.97,134.98L315.04,133.96L315.11,132.94L315.16,131.92L315.21,130.90L315.25,129.88L315.28,128.86L315.31,127.84L315.33,126.82L315.35,125.80L315.35,124.78L315.36,123.76L315.35,122.74L315.34,121.74L315.33,120.74L315.30,119.73L315.27,118.73L315.24,117.72L315.20,116.72L315.15,115.72L315.10,114.72L315.03,113.71L314.97,112.71L314.94,111.69L314.91,110.69" ldp_corner="44 177 235 305 362 496" />
        <path fill="none" ldp_poly="48" ldp_3dx="84.516060" ldp_3dy="75.208382" ldp_3dz="143.525879" ldp_3drx="-0.720452" ldp_3dry="0.693465" ldp_3drz="-0.004646" ldp_3drw="0.005812" ldp_cylinder_dir="0" stroke="#231F20" stroke-width="0.680000" stroke-linecap="round" stroke-linejoin="round" stroke-miterlimit="10.000000" d="M291.61,30.71L290.63,30.34L289.67,29.95L288.71,29.54L287.78,29.09L286.85,28.62L285.94,28.13L285.04,27.61L284.15,27.07L283.29,26.50L282.45,25.92L281.63,25.31L280.83,24.68L280.05,24.02L279.29,23.35L278.55,22.66L277.82,21.94L276.91,22.38L276.00,22.80L275.10,23.23L274.18,23.66L273.28,24.09L272.37,24.52L271.46,24.94L270.55,25.37L269.64,25.79L268.72,26.22L267.80,26.65L266.87,27.08L265.95,27.51L265.02,27.94L264.10,28.37L263.17,28.80L262.25,29.23L261.32,29.66L260.40,30.09L259.47,30.52L258.55,30.95L257.62,31.38L256.70,31.82L255.77,32.25L254.85,32.68L253.92,33.11L253.00,33.54L252.07,33.97L251.15,34.41L250.23,34.84L249.30,35.28L248.38,35.72L247.46,36.15L246.54,36.59L245.62,37.03L244.69,37.47L243.77,37.91L242.86,38.36L241.94,38.80L241.02,39.24L240.10,39.69L239.18,40.14L238.27,40.59L237.33,41.03L236.40,41.49L235.47,41.94L234.54,42.41L233.61,42.88L232.69,43.36L231.77,43.84L230.86,44.33L229.95,44.82L229.04,45.32L228.14,45.82L227.25,46.32L226.36,46.82L225.48,47.33L224.60,47.84L223.72,48.35L222.84,48.87L221.96,49.39L221.08,49.91L220.21,50.44L219.33,50.97L218.46,51.50L217.60,52.03L216.72,52.56L215.86,53.10L214.99,53.64L214.12,54.18L213.26,54.72L212.39,55.26L211.52,55.80L210.66,56.34L209.79,56.88L208.93,57.42L208.06,57.96L207.20,58.50L206.33,59.04L205.47,59.58L204.60,60.12L203.73,60.66L202.86,61.19L201.99,61.73L201.12,62.25L200.25,62.78L199.37,63.31L198.50,63.83L198.72,64.78L198.95,65.72L199.16,66.67L199.37,67.62L199.58,68.57L199.79,69.51L199.98,70.47L200.18,71.42L200.36,72.37L200.54,73.33L200.73,74.34L200.90,75.34L201.07,76.35L201.23,77.36L201.39,78.37L201.50,79.15L201.53,79.38L201.67,80.39L201.80,81.41L201.92,82.42L202.03,83.43L202.13,84.45L202.22,85.46L202.31,86.46L202.38,87.46L202.44,88.47L202.49,89.48L202.53,90.49L202.55,91.49L202.57,92.50L202.57,93.51L202.57,93.60L202.57,94.52L202.57,95.61L202.55,96.70L202.50,97.80L202.43,98.89L202.33,99.98L202.19,101.07L202.02,102.15L201.81,103.22L201.56,104.28L201.26,105.33L200.91,106.37L200.52,107.38L200.13,108.28L199.70,109.16L199.24,110.02L198.73,110.85L198.20,111.66L197.63,112.44L197.02,113.19L196.39,113.93L195.73,114.62L195.04,115.29L194.30,115.97L193.53,116.62L192.74,117.24L191.93,117.84L191.11,118.41L190.26,118.96L189.41,119.48L188.54,119.99L188.92,120.97L189.27,121.98L189.56,122.99L189.81,124.02L190.03,125.05L190.20,126.09L190.36,127.13L190.49,128.17L190.61,129.22L190.72,130.27L190.82,131.28L190.92,132.30L190.42,217.61L190.22,252.21L191.23,252.22L192.25,252.25L193.27,252.27L194.29,252.31L195.31,252.34L196.32,252.38L197.34,252.42L198.36,252.47L199.37,252.52L200.39,252.57L201.41,252.63L202.43,252.69L203.45,252.76L204.47,252.83L205.48,252.90L206.50,252.98L207.52,253.07L208.53,253.15L209.55,253.24L210.56,253.35L211.58,253.45L212.60,253.55L213.61,253.65L214.63,253.76L215.65,253.86L216.66,253.96L217.68,254.06L218.69,254.15L219.71,254.25L220.72,254.35L221.74,254.44L222.76,254.54L223.77,254.63L224.79,254.73L225.80,254.82L226.82,254.91L227.84,255.00L228.85,255.09L229.87,255.18L230.88,255.27L231.90,255.36L232.92,255.45L233.94,255.53L234.95,255.62L235.97,255.70L236.99,255.79L238.00,255.87L239.02,255.95L240.04,256.03L241.06,256.11L242.07,256.19L243.09,256.27L244.11,256.35L245.12,256.43L246.14,256.51L247.16,256.58L248.18,256.65L249.20,256.73L250.21,256.81L251.19,256.88L252.17,256.94L253.15,257.01L254.13,257.08L255.11,257.15L256.09,257.21L257.07,257.28L258.05,257.34L259.03,257.41L260.01,257.47L294.52,257.47L294.52,103.15L294.52,102.16L294.51,101.17L294.51,100.18L294.51,99.20L294.50,98.21L294.49,97.22L294.49,96.23L294.48,95.24L294.47,94.25L294.47,93.26L294.46,92.24L294.45,91.22L294.43,90.20L294.43,89.18L294.41,88.16L294.40,87.14L294.39,86.12L294.37,85.10L294.36,84.08L294.34,83.06L294.32,82.04L294.31,81.02L294.29,80.00L294.27,78.98L294.25,77.96L294.23,76.94L294.21,75.92L294.19,74.90L294.17,73.88L294.14,72.86L294.12,71.84L294.10,70.82L294.07,69.80L294.05,68.78L294.02,67.76L293.99,66.73L293.96,65.72L293.94,64.70L293.91,63.68L293.88,62.66L293.85,61.64L293.81,60.62L293.78,59.60L293.75,58.58L293.71,57.56L293.68,56.54L293.64,55.52L293.61,54.50L293.58,53.48L293.54,52.46L293.50,51.44L293.46,50.42L293.42,49.40L293.38,48.38L293.34,47.36L293.30,46.34L293.26,45.32L293.21,44.30L293.17,43.28L293.13,42.26L293.08,41.24L293.04,40.22L292.99,39.20L292.94,38.18L292.90,37.17L292.85,36.15L292.80,35.13L292.75,34.11L292.70,33.09L292.64,32.07L292.59,31.05L291.61,30.71" ldp_corner="16 104 167 181 251 323" />
        <path fill="none" ldp_poly="60" ldp_3dx="0.497216" ldp_3dy="76.714996" ldp_3dz="139.559769" ldp_3drx="-0.708896" ldp_3dry="0.705312" ldp_3drz="0.000858" ldp_3drw="0.000875" ldp_cylinder_dir="0" stroke="#231F20" stroke-width="0.680000" stroke-linecap="round" stroke-linejoin="round" stroke-miterlimit="10.000000" d="M28.18,30.51L23.93,30.14L22.85,29.94L21.78,29.71L20.72,29.43L19.67,29.12L19.67,101.33L19.67,161.95L19.67,255.65L36.68,255.65L36.68,161.95L36.68,101.33L36.68,29.12L35.63,29.44L34.57,29.71L33.51,29.95L32.43,30.14L28.18,30.51" ldp_corner="5 8 9 12" />
        <path fill="none" ldp_poly="68" ldp_3dx="330.479980" ldp_3dy="76.714996" ldp_3dz="0.000000" ldp_3drx="0.000000" ldp_3dry="0.000000" ldp_3drz="0.000000" ldp_3drw="1.000000" ldp_cylinder_dir="0" stroke="#231F20" stroke-width="0.680000" stroke-linecap="round" stroke-linejoin="round" stroke-miterlimit="10.000000" d="M347.46,77.07L313.50,76.36" ldp_corner="0 1" />
        <path fill="none" ldp_poly="71" ldp_3dx="330.479980" ldp_3dy="76.714996" ldp_3dz="0.000000" ldp_3drx="0.000000" ldp_3dry="0.000000" ldp_3drz="0.000000" ldp_3drw="1.000000" ldp_cylinder_dir="0" stroke="#231F20" stroke-width="0.680000" stroke-linecap="round" stroke-linejoin="round" stroke-miterlimit="10.000000" d="M58.05,39.76L58.64,29.53" ldp_corner="0 1" />
        <path fill="none" ldp_poly="74" ldp_3dx="330.479980" ldp_3dy="76.714996" ldp_3dz="0.000000" ldp_3drx="0.000000" ldp_3dry="0.000000" ldp_3drz="0.000000" ldp_3drw="1.000000" ldp_cylinder_dir="0" stroke="#231F20" stroke-width="0.680000" stroke-linecap="round" stroke-linejoin="round" stroke-miterlimit="10.000000" d="M48.11,39.38L48.24,29.14" ldp_corner="0 1" />
        <path fill="none" ldp_poly="77" ldp_3dx="330.479980" ldp_3dy="76.714996" ldp_3dz="0.000000" ldp_3drx="0.000000" ldp_3dry="0.000000" ldp_3drz="0.000000" ldp_3drw="1.000000" ldp_cylinder_dir="0" stroke="#231F20" stroke-width="0.680000" stroke-linecap="round" stroke-linejoin="round" stroke-miterlimit="10.000000" d="M378.94,209.50L399.10,213.82L399.10,213.82" ldp_corner="0 2" />
        <path fill="none" ldp_poly="80" ldp_3dx="330.479980" ldp_3dy="76.714996" ldp_3dz="0.000000" ldp_3drx="0.000000" ldp_3dry="0.000000" ldp_3drz="0.000000" ldp_3drw="1.000000" ldp_cylinder_dir="0" stroke="#231F20" stroke-width="0.680000" stroke-linecap="round" stroke-linejoin="round" stroke-miterlimit="10.000000" d="M321.10,95.26L314.33,95.72" ldp_corner="0 1" />
        <path fill="none" ldp_poly="83" ldp_3dx="330.479980" ldp_3dy="76.714996" ldp_3dz="0.000000" ldp_3drx="0.000000" ldp_3dry="0.000000" ldp_3drz="0.000000" ldp_3drw="1.000000" ldp_cylinder_dir="0" stroke="#231F20" stroke-width="0.680000" stroke-linecap="round" stroke-linejoin="round" stroke-miterlimit="10.000000" d="M321.42,101.38L314.62,101.67" ldp_corner="0 1" />
        <path fill="none" ldp_poly="86" ldp_3dx="330.479980" ldp_3dy="76.714996" ldp_3dz="0.000000" ldp_3drx="0.000000" ldp_3dry="0.000000" ldp_3drz="0.000000" ldp_3drw="1.000000" ldp_cylinder_dir="0" stroke="#231F20" stroke-width="0.680000" stroke-linecap="round" stroke-linejoin="round" stroke-miterlimit="10.000000" d="M320.30,84.38L313.50,84.69" ldp_corner="0 1" />
        <path fill="none" ldp_poly="89" ldp_3dx="330.479980" ldp_3dy="76.714996" ldp_3dz="0.000000" ldp_3drx="0.000000" ldp_3dry="0.000000" ldp_3drz="0.000000" ldp_3drw="1.000000" ldp_cylinder_dir="0" stroke="#231F20" stroke-width="0.680000" stroke-linecap="round" stroke-linejoin="round" stroke-miterlimit="10.000000" d="M321.77,112.53L314.97,112.71" ldp_corner="0 1" />
        <path fill="none" ldp_poly="92" ldp_3dx="-109.182663" ldp_3dy="-89.859261" ldp_3dz="102.519897" ldp_3drx="-0.000028" ldp_3dry="-0.000847" ldp_3drz="0.690514" ldp_3drw="0.723319" ldp_cylinder_dir="0" stroke="#231F20" stroke-width="0.680000" stroke-linecap="round" stroke-linejoin="round" stroke-miterlimit="10.000000" d="M159.65,429.16L159.79,430.20L159.93,431.25L160.09,432.30L160.26,433.34L160.45,434.38L160.68,435.41L160.93,436.44L161.22,437.46L161.55,438.46L161.91,439.40L162.32,440.33L161.46,440.98L160.61,441.65L159.77,442.33L158.96,443.03L158.16,443.75L157.38,444.49L156.63,445.25L155.89,446.03L155.19,446.83L154.51,447.65L153.88,448.47L153.27,449.30L152.71,450.16L152.17,451.04L151.67,451.95L151.21,452.86L150.78,453.80L150.40,454.76L150.07,455.72L149.78,456.71L149.54,457.76L149.35,458.82L149.21,459.88L149.11,460.95L149.05,462.02L149.04,463.09L149.05,464.15L149.09,465.22L149.12,466.23L149.18,467.24L149.26,468.25L149.37,469.25L149.49,470.25L149.65,471.25L149.82,472.24L150.03,473.27L150.25,474.29L150.50,475.31L150.77,476.32L151.07,477.33L151.38,478.33L151.71,479.32L152.07,480.32L152.45,481.31L152.84,482.30L153.25,483.28L153.67,484.25L154.10,485.22L154.55,486.19L154.99,487.16L155.46,488.13L155.92,489.08L156.37,490.00L156.82,490.91L157.28,491.82L157.73,492.73L158.19,493.65L158.65,494.56L159.11,495.47L158.19,495.79L157.28,496.11L156.36,496.43L155.43,496.74L154.51,497.04L153.59,497.35L152.66,497.64L151.73,497.93L150.80,498.22L149.87,498.51L148.90,498.80L147.92,499.09L146.94,499.37L145.95,499.65L144.97,499.92L143.99,500.19L143.00,500.45L142.01,500.71L141.02,500.96L140.03,501.21L139.04,501.45L138.04,501.69L137.06,501.92L136.06,502.15L135.06,502.37L134.07,502.58L133.07,502.80L132.07,503.00L131.07,503.20L130.07,503.39L129.06,503.59L128.05,503.77L127.09,503.94L126.12,504.11L125.14,504.27L124.17,504.43L123.20,504.58L122.22,504.73L121.24,504.87L120.27,505.01L119.29,505.15L118.32,505.28L117.30,505.41L116.29,505.52L115.28,505.65L114.26,505.76L113.24,505.86L112.23,505.97L111.19,506.07L110.15,506.15L109.10,506.24L108.06,506.32L107.01,506.39L105.97,506.46L104.92,506.53L103.88,506.59L102.83,506.65L101.79,506.70L100.77,506.75L99.75,506.80L98.73,506.84L97.71,506.89L96.69,506.92L95.67,506.96L94.65,506.99L93.63,507.02L92.61,507.04L91.59,507.07L90.57,507.09L89.55,507.11L88.53,507.13L87.51,507.15L86.49,507.17L85.47,507.18L84.45,507.19L83.43,507.21L82.41,507.22L58.64,507.22L48.24,507.61L43.14,507.61L43.19,308.25L91.74,308.25L140.28,308.24L142.54,308.25L153.89,308.25L156.14,308.25L156.64,325.71L157.11,342.81L159.51,428.11L159.65,429.16" ldp_corner="11 70 150 151 156" />
        <path fill="none" ldp_poly="102" ldp_3dx="-85.172432" ldp_3dy="-23.741222" ldp_3dz="268.042297" ldp_3drx="-0.514899" ldp_3dry="0.465317" ldp_3drz="0.515540" ldp_3drw="0.502571" ldp_cylinder_dir="0" stroke="#231F20" stroke-width="0.680000" stroke-linecap="round" stroke-linejoin="round" stroke-miterlimit="10.000000" d="M379.17,272.15L380.13,272.15L381.11,272.16L382.08,272.17L383.05,272.17L384.02,272.19L384.99,272.20L385.97,272.21L386.94,272.23L387.91,272.24L388.93,272.27L389.95,272.29L390.97,272.31L391.99,272.33L393.01,272.36L394.03,272.39L395.05,272.42L396.07,272.45L397.09,272.48L398.11,272.51L399.13,272.54L400.15,272.58L401.17,272.62L402.19,272.65L403.21,272.70L404.23,272.74L405.25,272.78L406.27,272.82L407.29,272.86L408.31,272.91L409.33,272.95L410.35,273.00L411.37,273.05L412.39,273.09L413.40,273.15L414.43,273.20L415.44,273.25L416.46,273.30L417.48,273.35L418.50,273.41L419.52,273.46L420.54,273.52L421.56,273.57L422.58,273.63L423.59,273.68L424.61,273.74L425.63,273.80L426.65,273.85L427.67,273.91L428.69,273.97L429.71,274.03L430.72,274.09L431.74,274.15L432.75,274.21L433.77,274.27L434.78,274.33L435.79,274.39L436.80,274.45L437.82,274.51L438.83,274.57L439.84,274.63L440.86,274.69L441.88,274.75L442.90,274.81L443.92,274.87L444.94,274.93L445.96,274.99L446.98,275.05L448.00,275.11L449.02,275.17L450.03,275.23L451.05,275.29L452.07,275.35L453.09,275.40L454.11,275.46L455.13,275.52L456.15,275.58L456.30,276.59L456.46,277.60L456.63,278.61L456.81,279.62L456.98,280.62L457.16,281.63L457.34,282.64L457.53,283.64L457.72,284.65L457.91,285.65L458.11,286.66L458.30,287.66L458.51,288.66L458.71,289.66L458.92,290.66L459.13,291.65L459.34,292.65L459.55,293.65L459.77,294.65L459.99,295.65L460.21,296.64L460.43,297.64L460.66,298.63L460.89,299.63L461.11,300.62L461.34,301.62L461.58,302.61L461.81,303.61L462.04,304.60L462.27,305.59L462.51,306.58L462.74,307.58L462.98,308.57L463.22,309.56L463.48,310.54L463.75,311.53L464.02,312.51L464.28,313.49L464.55,314.47L464.82,315.45L465.09,316.43L465.36,317.41L465.63,318.38L465.90,319.36L466.18,320.35L466.46,321.33L466.75,322.31L467.03,323.29L467.32,324.27L467.60,325.25L467.90,326.22L468.19,327.20L468.49,328.18L468.79,329.15L469.10,330.12L469.41,331.10L469.73,332.07L470.04,333.04L380.81,344.35L381.01,343.36L381.18,342.36L381.31,341.35L381.41,340.34L381.47,339.33L381.49,338.32L381.47,337.31L381.42,336.30L381.32,335.29L381.18,334.29L381.00,333.29L380.78,332.30L380.52,331.31L380.22,330.34L379.88,329.38L379.51,328.44L379.10,327.51L378.49,326.61L377.85,325.75L377.17,324.91L376.45,324.11L375.70,323.34L374.91,322.62L374.09,321.94L373.24,321.31L372.36,320.72L371.46,320.18L370.54,319.70L369.62,319.26L368.68,318.86L367.72,318.51L366.75,318.19L365.77,317.92L364.78,317.67L363.79,317.46L362.79,317.28L361.78,317.12L360.78,316.98L359.76,316.87L358.75,316.77L357.73,316.70L356.71,316.62L355.70,316.57L354.68,316.53L353.66,316.48L352.64,316.45L351.62,316.42L350.60,316.39L349.58,316.35L348.56,316.32L349.13,271.78L354.23,271.84L378.19,272.15L379.17,272.15" ldp_corner="76 134 135 185 186" />
        <path fill="none" ldp_poly="112" ldp_3dx="-28.895561" ldp_3dy="-227.164581" ldp_3dz="274.778656" ldp_3drx="0.591965" ldp_3dry="0.434014" ldp_3drz="-0.566614" ldp_3drw="0.374377" ldp_cylinder_dir="0" stroke="#231F20" stroke-width="0.680000" stroke-linecap="round" stroke-linejoin="round" stroke-miterlimit="10.000000" d="M168.05,269.39L168.34,270.32L168.62,271.25L168.90,272.17L169.17,273.10L169.44,274.04L169.71,274.97L169.97,275.90L170.23,276.84L170.48,277.77L170.75,278.76L171.01,279.75L171.26,280.74L171.51,281.73L171.76,282.72L172.01,283.71L172.24,284.70L172.48,285.69L172.71,286.69L172.93,287.68L173.15,288.68L173.37,289.68L173.58,290.67L173.79,291.68L173.99,292.68L174.19,293.68L174.38,294.68L174.57,295.68L174.75,296.69L174.93,297.69L175.10,298.69L175.27,299.70L175.44,300.71L175.60,301.72L175.75,302.73L175.90,303.74L176.04,304.75L176.18,305.76L176.31,306.77L176.44,307.78L176.56,308.79L176.68,309.81L176.79,310.82L176.90,311.84L177.00,312.85L177.10,313.87L177.19,314.88L177.28,315.90L177.36,316.92L177.43,317.94L177.50,318.95L177.57,319.97L177.63,320.99L177.68,322.00L177.73,323.02L177.78,324.04L177.81,325.06L177.84,326.08L177.87,327.10L177.89,328.12L177.90,329.14L177.91,330.16L177.91,339.82L165.99,339.82L165.99,330.17L165.98,329.09L165.95,328.02L165.92,326.95L165.88,325.88L165.83,324.81L165.78,323.74L165.72,322.67L165.66,321.60L165.59,320.53L165.52,319.46L165.44,318.45L165.36,317.43L165.27,316.41L165.18,315.40L165.09,314.38L164.98,313.36L164.88,312.35L164.76,311.33L164.65,310.32L164.53,309.31L164.40,308.30L164.27,307.28L164.14,306.27L164.00,305.26L163.86,304.25L163.71,303.24L163.57,302.23L163.41,301.22L163.25,300.21L163.09,299.20L162.92,298.20L162.75,297.19L162.57,296.19L162.40,295.18L162.22,294.18L162.03,293.18L161.84,292.17L161.65,291.17L161.46,290.17L161.26,289.16L161.06,288.17L160.86,287.16L160.65,286.17L160.44,285.17L160.23,284.17L160.01,283.17L159.80,282.18L159.57,281.18L159.35,280.19L159.13,279.19L158.90,278.19L158.67,277.20L158.44,276.21L158.20,275.21L157.97,274.22L157.73,273.23L157.49,272.24L167.77,268.46L168.05,269.39" ldp_corner="62 63 121 122" />
        <path fill="none" ldp_poly="120" ldp_3dx="-42.074383" ldp_3dy="219.628265" ldp_3dz="278.305298" ldp_3drx="0.519881" ldp_3dry="-0.465776" ldp_3drz="0.568314" ldp_3drw="0.435656" ldp_cylinder_dir="0" stroke="#231F20" stroke-width="0.680000" stroke-linecap="round" stroke-linejoin="round" stroke-miterlimit="10.000000" d="M176.50,438.67L177.36,439.25L178.20,439.88L178.97,440.58L179.66,441.36L180.23,442.22L180.64,443.15L180.87,444.13L180.93,445.11L180.84,446.08L180.62,447.04L180.33,447.98L180.05,448.92L179.78,449.87L179.50,450.81L179.24,451.76L178.99,452.71L178.74,453.66L178.49,454.62L178.25,455.57L178.03,456.53L177.79,457.52L177.57,458.52L177.35,459.52L177.13,460.51L176.93,461.51L176.73,462.51L176.53,463.51L176.35,464.52L176.17,465.52L175.99,466.53L175.82,467.54L175.66,468.54L175.51,469.55L175.36,470.56L175.21,471.57L175.08,472.58L174.95,473.59L174.82,474.61L174.70,475.62L174.59,476.64L174.48,477.65L174.38,478.67L174.28,479.68L174.19,480.70L174.10,481.72L174.02,482.73L173.95,483.75L173.88,484.77L173.81,485.79L173.75,486.80L173.70,487.82L173.65,488.84L173.60,489.86L173.56,490.88L173.52,491.90L173.49,492.92L173.47,493.94L173.44,494.96L173.43,495.98L173.42,497.00L173.40,498.02L173.40,499.04L173.40,500.06L173.40,501.08L173.41,502.10L173.42,503.12L173.42,514.70L164.83,514.70L164.83,504.82L164.86,503.82L164.90,502.82L164.94,501.83L164.98,500.83L165.04,499.83L165.09,498.84L165.15,497.84L165.22,496.85L165.28,495.85L165.36,494.86L165.44,493.84L165.52,492.82L165.61,491.81L165.71,490.79L165.81,489.77L165.91,488.76L166.02,487.74L166.13,486.73L166.25,485.72L166.37,484.71L166.50,483.69L166.64,482.68L166.77,481.67L166.92,480.66L166.98,479.60L167.04,478.55L167.11,477.50L167.19,476.44L167.27,475.39L167.36,474.34L167.46,473.29L167.56,472.24L167.67,471.19L167.79,470.14L167.91,469.13L168.04,468.11L168.18,467.10L168.33,466.09L168.48,465.08L168.64,464.08L168.81,463.07L168.99,462.06L169.18,461.06L169.37,460.06L169.58,459.06L169.80,458.06L170.02,457.07L170.26,456.08L170.51,455.09L170.77,454.10L171.03,453.11L171.31,452.13L171.60,451.16L171.90,450.18L172.21,449.21L172.54,448.24L172.87,447.28L173.22,446.32L173.57,445.36L173.94,444.41L174.32,443.47L174.71,442.52L176.50,438.67" ldp_corner="0 67 68" />
        <path fill="none" ldp_poly="126" ldp_3dx="-171.246689" ldp_3dy="-11.028952" ldp_3dz="252.824936" ldp_3drx="0.672820" ldp_3dry="0.378044" ldp_3drz="-0.528293" ldp_3drw="0.353981" ldp_cylinder_dir="0" stroke="#231F20" stroke-width="0.680000" stroke-linecap="round" stroke-linejoin="round" stroke-miterlimit="10.000000" d="M314.91,426.06L314.89,427.06L314.86,428.07L314.83,429.07L314.80,430.07L314.77,431.08L314.74,432.08L314.70,433.08L314.67,434.09L314.62,435.08L314.33,441.03L313.50,452.06L313.46,453.10L313.43,454.14L313.40,455.18L313.39,456.22L313.39,457.26L313.41,458.30L313.44,459.34L313.50,460.39L313.54,461.40L313.59,462.42L313.65,463.44L313.72,464.46L313.79,465.48L313.86,466.50L313.95,467.51L314.03,468.53L314.12,469.55L314.21,470.56L314.31,471.58L314.40,472.59L314.49,473.61L314.59,474.63L314.68,475.69L314.78,476.75L314.87,477.81L314.95,478.86L315.04,479.92L315.11,480.98L315.18,482.04L315.25,483.10L315.31,484.17L315.35,485.23L315.40,496.28L316.41,496.43L317.42,496.58L318.43,496.74L319.44,496.89L320.45,497.04L321.46,497.19L322.46,497.33L323.47,497.48L324.48,497.62L325.49,497.77L326.50,497.92L327.51,498.06L328.52,498.20L329.53,498.34L330.54,498.48L331.56,498.63L332.57,498.77L333.58,498.91L334.59,499.05L335.60,499.19L336.61,499.33L337.62,499.47L338.63,499.61L339.65,499.74L340.65,499.88L341.67,500.02L342.68,500.16L343.69,500.30L344.70,500.44L345.71,500.58L346.72,500.72L347.73,500.85L348.74,500.99L349.75,501.14L350.77,501.28L351.78,501.41L352.79,501.56L353.80,501.70L354.81,501.84L355.82,501.98L356.83,502.12L357.84,502.27L358.85,502.41L359.86,502.56L360.87,502.70L361.88,502.85L362.89,503.00L363.90,503.14L364.91,503.29L365.92,503.44L366.93,503.59L367.94,503.74L368.95,503.90L369.95,504.05L370.96,504.21L371.97,504.36L372.98,504.52L373.98,504.68L374.99,504.84L376.04,505.01L377.09,505.18L378.14,505.35L379.18,505.52L380.23,505.70L381.27,505.87L382.32,506.05L383.36,506.23L384.41,506.41L385.45,506.59L386.46,506.77L387.46,506.96L388.47,507.14L389.47,507.33L390.47,507.51L391.48,507.71L392.48,507.89L393.48,508.09L394.48,508.29L395.48,508.48L396.48,508.68L397.52,508.89L398.55,509.10L399.57,509.31L400.60,509.52L401.63,509.74L402.66,509.96L403.69,510.18L404.72,510.40L405.74,510.63L406.77,510.86L407.77,511.08L408.77,511.29L409.76,511.52L410.76,511.74L411.75,511.97L412.74,512.20L413.74,512.43L414.73,512.66L415.72,512.90L416.71,513.14L417.71,513.39L418.70,513.64L419.68,513.90L420.67,514.15L421.66,514.42L422.64,514.68L423.63,514.95L424.61,515.23L425.59,515.50L426.57,515.79L427.55,516.08L428.53,516.37L429.51,516.67L430.48,516.97L431.45,517.28L432.42,517.59L433.39,517.91L434.36,518.23L435.33,518.56L436.29,518.90L437.26,519.24L438.21,519.59L439.17,519.94L440.11,520.30L441.05,520.66L441.99,521.03L442.93,521.40L443.87,521.78L444.79,522.16L445.73,522.56L446.65,522.95L447.57,523.36L448.49,523.77L448.62,522.76L448.76,521.75L448.90,520.74L449.04,519.73L449.20,518.72L449.36,517.71L449.52,516.70L449.70,515.70L449.88,514.69L450.06,513.69L450.25,512.69L450.45,511.69L450.65,510.69L450.86,509.69L451.07,508.69L451.29,507.70L451.52,506.70L451.75,505.70L451.99,504.72L452.23,503.72L452.48,502.74L452.74,501.74L452.99,500.76L453.26,499.77L453.52,498.79L453.80,497.81L454.08,496.82L454.36,495.84L454.65,494.87L454.95,493.89L455.23,492.95L455.52,492.02L455.82,491.09L456.11,490.16L456.41,489.23L456.72,488.31L457.03,487.38L457.35,486.46L457.66,485.53L457.99,484.61L458.34,483.65L458.69,482.70L459.04,481.74L459.40,480.78L459.77,479.83L460.09,478.96L460.13,478.87L460.50,477.91L460.87,476.95L461.24,475.99L461.61,475.03L461.98,474.08L462.36,473.12L462.74,472.17L463.11,471.21L463.48,470.26L463.85,469.31L464.01,468.92L464.23,468.36L464.60,467.41L464.97,466.45L465.34,465.49L465.70,464.54L466.07,463.58L466.43,462.62L466.78,461.65L467.14,460.69L467.49,459.73L467.83,458.76L467.92,458.49L468.17,457.79L468.49,456.87L468.82,455.95L469.13,455.02L469.43,454.09L469.73,453.17L470.02,452.23L470.30,451.30L470.57,450.36L470.84,449.42L471.11,448.44L471.37,447.46L471.62,446.46L471.85,445.47L472.07,444.47L472.27,443.47L472.46,442.47L472.63,441.42L472.78,440.37L472.91,439.32L473.02,438.26L473.10,437.20L473.14,436.35L473.15,436.14L473.18,435.07L473.18,434.00L473.16,432.94L473.11,431.87L473.07,430.86L473.01,429.84L472.95,428.82L472.86,427.81L472.77,426.79L472.66,425.78L472.53,424.77L472.40,423.76L472.25,422.75L472.08,421.74L471.90,420.74L471.71,419.74L471.51,418.74L471.29,417.74L471.06,416.75L470.81,415.76L470.55,414.77L470.47,414.48L470.29,413.79L470.00,412.81L469.71,411.83L469.41,410.86L469.09,409.89L468.76,408.92L468.42,407.96L468.05,406.96L467.68,405.97L467.29,404.98L466.89,403.99L466.62,403.36L466.48,403.01L466.06,402.03L465.63,401.06L465.18,400.09L464.73,399.13L464.27,398.17L463.81,397.26L463.36,396.40L462.90,395.54L462.44,394.68L461.98,393.82L461.72,393.35L461.51,392.97L461.05,392.12L460.58,391.27L460.11,390.42L459.64,389.57L459.17,388.71L458.69,387.81L458.23,386.90L457.76,385.99L457.30,385.09L456.84,384.18L456.39,383.27L455.94,382.35L455.50,381.44L455.07,380.52L454.63,379.60L454.21,378.67L453.80,377.74L453.38,376.81L453.00,375.87L452.62,374.92L452.25,373.97L451.89,373.02L451.53,372.06L451.18,371.10L450.84,370.14L450.50,369.18L450.16,368.21L449.84,367.25L449.51,366.28L449.20,365.31L448.89,364.34L448.58,363.36L448.28,362.39L447.98,361.41L447.68,360.46L447.40,359.50L447.11,358.54L446.83,357.59L446.55,356.63L446.27,355.67L446.00,354.72L445.73,353.76L445.45,352.80L445.18,351.84L444.27,352.30L443.36,352.75L442.44,353.20L441.52,353.64L440.60,354.07L439.67,354.50L438.74,354.93L437.81,355.34L436.88,355.75L435.94,356.16L435.00,356.56L434.06,356.95L433.12,357.34L432.17,357.72L431.23,358.10L430.28,358.48L429.32,358.84L428.37,359.20L427.42,359.55L426.46,359.90L425.50,360.26L424.53,360.60L423.57,360.93L422.58,361.28L421.59,361.61L420.60,361.94L419.61,362.27L418.61,362.59L417.61,362.91L416.62,363.23L415.62,363.54L414.62,363.84L413.62,364.15L412.64,364.45L411.66,364.74L410.68,365.04L409.71,365.32L408.73,365.61L407.75,365.89L406.77,366.18L405.79,366.45L404.80,366.73L403.82,367.00L402.83,367.27L401.85,367.54L400.87,367.81L399.88,368.07L398.89,368.33L397.90,368.59L396.92,368.84L395.93,369.09L394.94,369.34L393.95,369.59L392.96,369.84L391.96,370.08L390.98,370.32L389.98,370.56L389.03,370.79L388.08,371.02L387.13,371.24L386.18,371.47L385.22,371.68L384.27,371.90L383.32,372.12L382.36,372.34L381.40,372.55L380.45,372.77L379.45,372.99L378.46,373.21L377.46,373.42L376.47,373.65L375.47,373.86L374.47,374.07L373.47,374.29L372.47,374.50L371.47,374.71L370.47,374.92L369.48,375.13L368.48,375.34L367.48,375.54L366.48,375.74L365.48,375.95L364.48,376.15L363.48,376.35L362.48,376.55L361.48,376.76L360.48,376.95L359.48,377.15L358.47,377.35L357.47,377.55L356.47,377.74L355.47,377.94L354.46,378.13L353.46,378.33L352.46,378.52L351.46,378.72L350.46,378.91L349.46,379.10L348.45,379.29L347.45,379.48L346.45,379.67L345.45,379.87L344.45,380.06L343.44,380.25L342.44,380.44L341.44,380.63L340.44,380.82L339.43,381.01L338.43,381.20L337.43,381.39L336.42,381.58L335.42,381.77L334.42,381.96L333.42,382.15L332.42,382.35L331.41,382.54L330.41,382.73L329.41,382.92L328.41,383.11L327.40,383.31L326.40,383.50L325.40,383.69L324.40,383.89L323.40,384.08L322.37,384.29L321.34,384.49L320.31,384.69L319.28,384.90L318.26,385.10L317.23,385.30L316.20,385.51L315.17,385.72L314.14,385.92L313.12,386.13L314.73,398.72L314.82,399.74L314.90,400.75L314.97,401.77L315.04,402.79L315.11,403.81L315.16,404.83L315.21,405.85L315.25,406.87L315.28,407.89L315.31,408.91L315.33,409.93L315.35,410.95L315.35,411.97L315.36,412.99L315.35,414.01L315.34,415.01L315.33,416.01L315.30,417.02L315.27,418.02L315.24,419.03L315.20,420.03L315.15,421.03L315.10,422.03L315.03,423.04L314.97,424.04L314.94,425.06L314.91,426.06" ldp_corner="44 177 235 305 362 496" />
        <path fill="none" ldp_poly="138" ldp_3dx="-84.516060" ldp_3dy="75.208382" ldp_3dz="143.525879" ldp_3drx="-0.005965" ldp_3dry="0.006345" ldp_3drz="-0.690962" ldp_3drw="0.722839" ldp_cylinder_dir="0" stroke="#231F20" stroke-width="0.680000" stroke-linecap="round" stroke-linejoin="round" stroke-miterlimit="10.000000" d="M291.61,506.04L290.63,506.41L289.67,506.80L288.71,507.21L287.78,507.66L286.85,508.13L285.94,508.62L285.04,509.14L284.15,509.68L283.29,510.25L282.45,510.83L281.63,511.44L280.83,512.07L280.05,512.73L279.29,513.40L278.55,514.09L277.82,514.81L276.91,514.37L276.00,513.95L275.10,513.52L274.18,513.09L273.28,512.66L272.37,512.23L271.46,511.81L270.55,511.38L269.64,510.96L268.72,510.53L267.80,510.10L266.87,509.67L265.95,509.24L265.02,508.81L264.10,508.38L263.17,507.95L262.25,507.52L261.32,507.09L260.40,506.66L259.47,506.23L258.55,505.80L257.62,505.37L256.70,504.93L255.77,504.50L254.85,504.07L253.92,503.64L253.00,503.21L252.07,502.78L251.15,502.34L250.23,501.91L249.30,501.47L248.38,501.03L247.46,500.60L246.54,500.16L245.62,499.72L244.69,499.28L243.77,498.84L242.86,498.39L241.94,497.95L241.02,497.51L240.10,497.06L239.18,496.61L238.27,496.16L237.33,495.72L236.40,495.26L235.47,494.81L234.54,494.34L233.61,493.87L232.69,493.39L231.77,492.91L230.86,492.42L229.95,491.93L229.04,491.43L228.14,490.93L227.25,490.43L226.36,489.93L225.48,489.42L224.60,488.91L223.72,488.40L222.84,487.88L221.96,487.36L221.08,486.84L220.21,486.31L219.33,485.78L218.46,485.25L217.60,484.72L216.72,484.19L215.86,483.65L214.99,483.11L214.12,482.57L213.26,482.03L212.39,481.49L211.52,480.95L210.66,480.41L209.79,479.87L208.93,479.33L208.06,478.79L207.20,478.25L206.33,477.71L205.47,477.17L204.60,476.63L203.73,476.09L202.86,475.56L201.99,475.02L201.12,474.50L200.25,473.97L199.37,473.44L198.50,472.92L198.72,471.97L198.95,471.03L199.16,470.08L199.37,469.13L199.58,468.18L199.79,467.24L199.98,466.28L200.18,465.33L200.36,464.38L200.54,463.42L200.73,462.41L200.90,461.41L201.07,460.40L201.23,459.39L201.39,458.38L201.53,457.37L201.67,456.36L201.80,455.34L201.92,454.33L202.03,453.32L202.13,452.30L202.22,451.29L202.31,450.29L202.38,449.29L202.44,448.28L202.49,447.27L202.53,446.26L202.55,445.26L202.57,444.25L202.57,443.24L202.57,442.23L202.57,441.14L202.55,440.05L202.50,438.95L202.43,437.86L202.33,436.77L202.19,435.68L202.02,434.60L201.81,433.53L201.56,432.47L201.26,431.42L200.91,430.38L200.52,429.37L200.13,428.47L199.70,427.59L199.24,426.73L198.73,425.90L198.20,425.09L197.63,424.31L197.02,423.56L196.39,422.82L195.73,422.13L195.04,421.46L194.30,420.78L193.53,420.13L192.74,419.51L191.93,418.91L191.11,418.34L190.26,417.79L189.41,417.27L188.54,416.76L188.92,415.78L189.27,414.77L189.56,413.76L189.81,412.73L190.03,411.70L190.20,410.66L190.36,409.62L190.49,408.58L190.61,407.53L190.72,406.48L190.82,405.47L190.92,404.45L190.42,319.14L190.22,284.54L191.23,284.53L192.25,284.50L193.27,284.48L194.29,284.44L195.31,284.41L196.32,284.37L197.34,284.33L198.36,284.28L199.37,284.23L200.39,284.18L201.41,284.12L202.43,284.06L203.45,283.99L204.47,283.92L205.48,283.85L206.50,283.77L207.52,283.68L208.53,283.60L209.55,283.51L210.56,283.40L211.58,283.30L212.60,283.20L213.61,283.10L214.63,282.99L215.65,282.89L216.66,282.79L217.68,282.69L218.69,282.60L219.71,282.50L220.72,282.40L221.74,282.31L222.76,282.21L223.77,282.12L224.79,282.02L225.80,281.93L226.82,281.84L227.84,281.75L228.85,281.66L229.87,281.57L230.88,281.48L231.90,281.39L232.92,281.30L233.94,281.22L234.95,281.13L235.97,281.05L236.99,280.96L238.00,280.88L239.02,280.80L240.04,280.72L241.06,280.64L242.07,280.56L243.09,280.48L244.11,280.40L245.12,280.32L246.14,280.24L247.16,280.17L248.18,280.10L249.20,280.02L250.21,279.94L251.19,279.87L252.17,279.81L253.15,279.74L254.13,279.67L255.11,279.60L256.09,279.54L257.07,279.47L258.05,279.41L259.03,279.34L260.01,279.28L294.52,279.28L294.52,433.60L294.52,434.59L294.51,435.58L294.51,436.57L294.51,437.55L294.50,438.54L294.49,439.53L294.49,440.52L294.48,441.51L294.47,442.50L294.47,443.49L294.46,444.51L294.45,445.53L294.43,446.55L294.43,447.57L294.41,448.59L294.40,449.61L294.39,450.63L294.37,451.65L294.36,452.67L294.34,453.69L294.32,454.71L294.31,455.73L294.29,456.75L294.27,457.77L294.25,458.79L294.23,459.81L294.21,460.83L294.19,461.85L294.17,462.87L294.14,463.89L294.12,464.91L294.10,465.93L294.07,466.95L294.05,467.97L294.02,468.99L293.99,470.02L293.96,471.03L293.94,472.05L293.91,473.07L293.88,474.09L293.85,475.11L293.81,476.13L293.78,477.15L293.75,478.17L293.71,479.19L293.68,480.21L293.64,481.23L293.61,482.25L293.58,483.27L293.54,484.29L293.50,485.31L293.46,486.33L293.42,487.35L293.38,488.37L293.34,489.39L293.30,490.41L293.26,491.43L293.21,492.45L293.17,493.47L293.13,494.49L293.08,495.51L293.04,496.53L292.99,497.55L292.94,498.57L292.90,499.58L292.85,500.60L292.80,501.62L292.75,502.64L292.70,503.66L292.64,504.68L292.59,505.70L291.61,506.04" ldp_corner="16 104 165 179 249 321" />
        <path fill="none" ldp_poly="150" ldp_3dx="-330.479980" ldp_3dy="76.714996" ldp_3dz="0.000000" ldp_3drx="0.000000" ldp_3dry="0.000000" ldp_3drz="0.000000" ldp_3drw="1.000000" ldp_cylinder_dir="0" stroke="#231F20" stroke-width="0.680000" stroke-linecap="round" stroke-linejoin="round" stroke-miterlimit="10.000000" d="M347.46,459.68L313.50,460.39" ldp_corner="0 1" />
        <path fill="none" ldp_poly="153" ldp_3dx="-330.479980" ldp_3dy="76.714996" ldp_3dz="0.000000" ldp_3drx="0.000000" ldp_3dry="0.000000" ldp_3drz="0.000000" ldp_3drw="1.000000" ldp_cylinder_dir="0" stroke="#231F20" stroke-width="0.680000" stroke-linecap="round" stroke-linejoin="round" stroke-miterlimit="10.000000" d="M58.05,496.99L58.64,507.22" ldp_corner="0 1" />
        <path fill="none" ldp_poly="156" ldp_3dx="-330.479980" ldp_3dy="76.714996" ldp_3dz="0.000000" ldp_3drx="0.000000" ldp_3dry="0.000000" ldp_3drz="0.000000" ldp_3drw="1.000000" ldp_cylinder_dir="0" stroke="#231F20" stroke-width="0.680000" stroke-linecap="round" stroke-linejoin="round" stroke-miterlimit="10.000000" d="M48.11,497.37L48.24,507.61" ldp_corner="0 1" />
        <path fill="none" ldp_poly="159" ldp_3dx="-330.479980" ldp_3dy="76.714996" ldp_3dz="0.000000" ldp_3drx="0.000000" ldp_3dry="0.000000" ldp_3drz="0.000000" ldp_3drw="1.000000" ldp_cylinder_dir="0" stroke="#231F20" stroke-width="0.680000" stroke-linecap="round" stroke-linejoin="round" stroke-miterlimit="10.000000" d="M378.94,327.25L399.10,322.93L399.10,322.93" ldp_corner="0 2" />
        <path fill="none" ldp_poly="162" ldp_3dx="-330.479980" ldp_3dy="76.714996" ldp_3dz="0.000000" ldp_3drx="0.000000" ldp_3dry="0.000000" ldp_3drz="0.000000" ldp_3drw="1.000000" ldp_cylinder_dir="0" stroke="#231F20" stroke-width="0.680000" stroke-linecap="round" stroke-linejoin="round" stroke-miterlimit="10.000000" d="M321.10,441.49L314.33,441.03" ldp_corner="0 1" />
        <path fill="none" ldp_poly="165" ldp_3dx="-330.479980" ldp_3dy="76.714996" ldp_3dz="0.000000" ldp_3drx="0.000000" ldp_3dry="0.000000" ldp_3drz="0.000000" ldp_3drw="1.000000" ldp_cylinder_dir="0" stroke="#231F20" stroke-width="0.680000" stroke-linecap="round" stroke-linejoin="round" stroke-miterlimit="10.000000" d="M321.42,435.37L314.62,435.08" ldp_corner="0 1" />
        <path fill="none" ldp_poly="168" ldp_3dx="-330.479980" ldp_3dy="76.714996" ldp_3dz="0.000000" ldp_3drx="0.000000" ldp_3dry="0.000000" ldp_3drz="0.000000" ldp_3drw="1.000000" ldp_cylinder_dir="0" stroke="#231F20" stroke-width="0.680000" stroke-linecap="round" stroke-linejoin="round" stroke-miterlimit="10.000000" d="M320.30,452.37L313.50,452.06" ldp_corner="0 1" />
        <path fill="none" ldp_poly="171" ldp_3dx="-330.479980" ldp_3dy="76.714996" ldp_3dz="0.000000" ldp_3drx="0.000000" ldp_3dry="0.000000" ldp_3drz="0.000000" ldp_3drw="1.000000" ldp_cylinder_dir="0" stroke="#231F20" stroke-width="0.680000" stroke-linecap="round" stroke-linejoin="round" stroke-miterlimit="10.000000" d="M321.77,424.22L314.97,424.04" ldp_corner="0 1" />
        <ldp_poly_group color="0.800000 0.600000 0.400000" cmd="48 4 60 0" />
        <ldp_poly_group color="0.800000 0.400000 0.600000" cmd="48 2 2 4" />
        <ldp_poly_group color="0.600000 0.800000 0.400000" cmd="36 0 36 4" />
        <ldp_poly_group color="0.400000 0.800000 0.600000" cmd="48 0 12 1" />
        <ldp_poly_group color="0.200000 0.400000 0.600000" cmd="12 4 2 1" />
        <ldp_poly_group color="0.800000 0.400000 0.600000" cmd="92 4 138 2" />
        <ldp_poly_group color="0.600000 0.800000 0.400000" cmd="126 0 126 4" />
        <ldp_poly_group color="0.400000 0.800000 0.600000" cmd="138 0 102 1" />
        <ldp_poly_group color="0.200000 0.400000 0.600000" cmd="92 1 102 4" />
        <ldp_poly_group color="0.400000 0.600000 0.200000" cmd="60 2 138 4" />
        <ldp_poly_group color="0.600000 0.200000 0.400000" cmd="2 2 92 2" />
        <ldp_poly_group color="0.600000 0.400000 0.200000" cmd="12 3 102 3" />
        <ldp_poly_group color="0.800000 0.600000 0.400000" cmd="36 2 12 0" />
        <ldp_poly_group color="0.600000 0.400000 0.800000" cmd="48 1 36 3" />
        <ldp_poly_group color="0.400000 0.600000 0.800000" cmd="36 1 2 0" />
        <ldp_poly_group color="0.400000 0.800000 0.600000" cmd="126 2 102 0" />
        <ldp_poly_group color="0.200000 0.400000 0.600000" cmd="126 3 138 1" />
        <ldp_poly_group color="0.200000 0.600000 0.400000" cmd="126 1 92 0" />
        <ldp_poly_group color="0.400000 0.200000 0.600000" cmd="71 0 74 0" />
        <ldp_poly_group color="0.400000 0.600000 0.200000" cmd="156 0 153 0" />
    </g>
</svg>
