<?xml version="1.0" encoding="utf-8" ?>
<!DOCTYPE svg PUBLIC "-//W3C//DTD SVG 1.1//EN" "http://www.w3.org/Graphics/SVG/1.1/DTD/svg11.dtd">
<svg version="1.1" id="svg_base" x="42.459999px" y="28.459999px" width="120.540001px" height="200.729980px" viewBox="42.459999 28.459999 120.540001 200.729980" enable-background="new 42.459999 28.459999 120.540001 200.729980" xml:space="preserve" ldp_pixel2meter="0.002932">
    <g ldp_layer_name="default" />
    <g ldp_layer_name="poly_A">
        <path fill="none" ldp_poly="3" ldp_3dx="109.182663" ldp_3dy="-89.859261" ldp_3dz="102.519897" ldp_3drx="-0.723318" ldp_3dry="-0.690514" ldp_3drz="-0.000402" ldp_3drw="0.000439" ldp_cylinder_dir="0" stroke="#231F20" stroke-width="0.680000" stroke-linecap="round" stroke-linejoin="round" stroke-miterlimit="10.000000" d="M159.65,107.59L159.79,106.55L159.93,105.50L160.09,104.45L160.26,103.41L160.45,102.37L160.68,101.34L160.93,100.31L161.22,99.29L161.55,98.29L161.91,97.35L162.32,96.42L161.46,95.77L160.61,95.10L159.77,94.42L158.96,93.72L158.16,93.00L157.38,92.26L156.63,91.50L155.89,90.72L155.19,89.92L154.51,89.10L153.88,88.28L153.27,87.45L152.71,86.59L152.17,85.71L151.67,84.80L151.21,83.89L150.78,82.95L150.40,81.99L150.07,81.03L149.78,80.04L149.54,78.99L149.35,77.93L149.21,76.87L149.11,75.80L149.05,74.73L149.04,73.66L149.05,72.60L149.09,71.53L149.12,70.52L149.18,69.51L149.26,68.50L149.37,67.50L149.49,66.50L149.65,65.50L149.82,64.51L150.03,63.48L150.25,62.46L150.50,61.44L150.77,60.43L151.07,59.42L151.38,58.42L151.71,57.43L152.07,56.43L152.45,55.44L152.84,54.45L153.25,53.47L153.67,52.50L154.10,51.53L154.55,50.56L154.99,49.59L155.46,48.62L155.92,47.67L156.37,46.75L156.82,45.84L157.28,44.93L157.73,44.02L158.19,43.10L158.65,42.19L159.11,41.28L158.19,40.96L157.28,40.64L156.36,40.32L155.43,40.01L154.51,39.71L153.59,39.40L152.66,39.11L151.73,38.82L150.80,38.53L149.87,38.24L148.90,37.95L147.92,37.66L146.94,37.38L145.95,37.10L144.97,36.83L143.99,36.56L143.00,36.30L142.01,36.04L141.02,35.79L140.03,35.54L139.04,35.30L138.04,35.06L137.06,34.83L136.06,34.60L135.06,34.38L134.07,34.17L133.07,33.95L132.07,33.75L131.07,33.55L130.07,33.36L129.06,33.16L128.05,32.98L127.09,32.81L126.12,32.64L125.14,32.48L124.17,32.32L123.20,32.17L122.22,32.02L121.24,31.88L120.27,31.74L119.29,31.60L118.32,31.47L117.30,31.34L116.29,31.23L115.28,31.10L114.26,30.99L113.24,30.89L112.23,30.78L111.19,30.68L110.15,30.60L109.10,30.51L108.06,30.43L107.01,30.36L105.97,30.29L104.92,30.22L103.88,30.16L102.83,30.10L101.79,30.05L100.77,30.00L99.75,29.95L98.73,29.91L97.71,29.86L96.69,29.83L95.67,29.79L94.65,29.76L93.63,29.73L92.61,29.71L91.59,29.68L90.57,29.66L89.55,29.64L88.53,29.62L87.51,29.60L86.49,29.58L85.47,29.57L84.45,29.56L83.43,29.54L82.41,29.53L58.64,29.53L48.24,29.14L43.14,29.14L43.19,228.50L91.74,228.50L140.28,228.51L142.54,228.50L153.89,228.50L156.14,228.50L156.64,211.04L157.11,193.94L159.51,108.64L159.65,107.59" ldp_corner="11 70 150 151 156" />
    </g>
</svg>
