<?xml version="1.0" encoding="utf-8" ?>
<!DOCTYPE svg PUBLIC "-//W3C//DTD SVG 1.1//EN" "http://www.w3.org/Graphics/SVG/1.1/DTD/svg11.dtd">
<svg version="1.1" id="svg_base" x="164.804001px" y="100.543999px" width="883.181946px" height="803.531982px" viewBox="164.804001 100.543999 883.181946 803.531982" enable-background="new 164.804001 100.543999 883.181946 803.531982" xml:space="preserve" ldp_pixel2meter="0.002932">
    <g ldp_layer_name="layer_0">
        <path fill="none" stroke="#231F20" stroke-width="0.476000" stroke-linecap="round" stroke-linejoin="round" stroke-miterlimit="10.000000" d="M261.78,228.33L261.79,228.20" />
        <path fill="none" ldp_poly="3" ldp_3dx="365.954498" ldp_3dy="139.814499" ldp_3dz="0.000000" ldp_3drx="0.000000" ldp_3dry="0.000000" ldp_3drz="0.000000" ldp_3drw="1.000000" ldp_cylinder_dir="0" stroke="#231F20" stroke-width="0.476000" stroke-linecap="round" stroke-linejoin="round" stroke-miterlimit="10.000000" d="M226.57,109.24L226.74,108.20L226.75,108.18" ldp_corner="0 2" />
        <path fill="none" ldp_poly="6" ldp_3dx="365.954498" ldp_3dy="139.814499" ldp_3dz="0.000000" ldp_3drx="0.000000" ldp_3dry="0.000000" ldp_3drz="0.000000" ldp_3drw="1.000000" ldp_cylinder_dir="0" stroke="#231F20" stroke-width="0.476000" stroke-linecap="round" stroke-linejoin="round" stroke-miterlimit="10.000000" d="M314.57,233.62L315.57,233.67L316.57,233.77L317.60,233.87L318.62,233.96L319.65,234.05L320.67,234.14L321.70,234.24L322.72,234.33L323.75,234.42L324.77,234.52L325.80,234.61L326.82,234.70L327.84,234.79L328.87,234.89L329.89,234.98L330.92,235.07L331.94,235.16L332.97,235.26L333.99,235.35L335.02,235.44L336.04,235.54L337.06,235.63L338.09,235.72L339.11,235.82L340.14,235.91L341.16,236.00L342.19,236.09L343.21,236.19L344.24,236.28L345.26,236.37L346.29,236.47L347.31,236.56L348.33,236.65L349.36,236.74L350.38,236.84L351.41,236.93L352.43,237.02L353.46,237.12L354.48,237.21L355.51,237.30L356.53,237.39L357.55,237.49L358.58,237.58L359.59,237.67L360.67,237.65L360.80,236.74L360.87,235.71L360.94,234.70L361.02,233.69L361.09,232.68L361.16,231.67L361.24,230.66L361.31,229.64L361.38,228.63L361.45,227.62L361.53,226.61L361.60,225.60L361.67,224.59L361.75,223.58L361.82,222.56L361.89,221.55L361.96,220.54L362.04,219.53L362.11,218.52L362.18,217.51L362.26,216.49L362.33,215.48L362.40,214.47L362.48,213.46L362.55,212.45L362.62,211.43L362.69,210.42L362.77,209.41L362.84,208.40L362.91,207.39L362.98,206.38L363.06,205.36L363.13,204.35L363.20,203.34L363.28,202.33L363.35,201.32L363.42,200.30L363.50,199.29L363.57,198.28L363.64,197.27L363.71,196.26L363.79,195.25L363.86,194.24L363.93,193.22L363.97,192.20L364.01,191.19L364.05,190.17L364.09,189.15L364.13,188.14L364.17,187.12L364.20,186.10L364.24,185.09L364.28,184.07L364.32,183.05L364.36,182.04L364.40,181.02L364.44,180.01L364.47,178.99L364.51,177.97L364.55,176.95L364.59,175.94L364.63,174.92L364.67,173.90L364.70,172.89L364.74,171.87L364.78,170.85L364.82,169.84L364.86,168.82L364.90,167.80L364.94,166.78L364.97,165.77L365.01,164.75L365.05,163.74L365.09,162.72L365.13,161.70L365.17,160.69L365.21,159.67L365.24,158.66L365.28,157.64L365.32,156.62L365.36,155.60L365.40,154.59L365.44,153.57L365.47,152.55L365.51,151.54L365.55,150.52L365.59,149.50L365.63,148.49L365.67,147.47L365.71,146.46L365.74,145.44L365.78,144.42L365.82,143.40L365.86,142.39L365.90,141.37L365.94,140.36L365.97,139.34L365.98,138.31L365.99,137.29L365.99,136.27L366.00,135.24L366.01,134.22L366.01,133.20L366.02,132.17L366.03,131.15L366.03,130.13L366.04,129.11L366.05,128.08L366.05,127.06L366.06,126.04L366.06,125.02L366.07,123.99L366.08,122.97L366.08,121.95L366.09,120.93L366.10,119.90L366.10,118.88L366.11,117.86L366.12,116.83L366.12,115.81L366.13,114.79L366.14,113.77L366.14,112.74L366.15,111.72L366.16,110.70L366.16,109.68L366.17,108.65L366.17,107.63L366.18,106.61L366.19,105.59L366.20,104.56L366.20,103.54L366.21,102.53L366.10,101.47L365.16,101.42L364.12,101.43L363.09,101.45L362.06,101.46L361.04,101.48L360.01,101.49L358.98,101.51L357.95,101.52L356.92,101.54L355.89,101.55L354.86,101.57L353.84,101.58L352.81,101.60L351.78,101.61L350.75,101.63L349.72,101.64L348.69,101.66L347.66,101.67L346.63,101.69L345.61,101.71L344.58,101.72L343.55,101.73L342.52,101.75L341.49,101.77L340.46,101.78L339.43,101.80L338.41,101.81L337.38,101.83L336.35,101.84L335.32,101.86L334.29,101.87L333.26,101.89L332.23,101.90L331.21,101.92L330.18,101.93L329.15,101.95L328.12,101.96L327.09,101.98L326.07,102.00L325.04,102.01L324.01,102.03L322.98,102.04L321.95,102.06L320.94,102.09L319.91,102.12L318.90,102.15L317.88,102.19L316.86,102.22L315.84,102.25L314.82,102.29L313.80,102.33L312.78,102.36L311.76,102.40L310.74,102.43L309.72,102.47L308.70,102.51L307.68,102.54L306.66,102.58L305.64,102.62L304.62,102.65L303.60,102.69L302.58,102.73L301.57,102.77L300.54,102.80L299.53,102.84L298.50,102.87L297.49,102.90L296.47,102.94L295.45,102.97L294.42,103.01L293.41,103.04L292.39,103.07L291.36,103.10L290.35,103.13L289.33,103.16L288.30,103.18L287.29,103.21L286.26,103.24L285.24,103.26L284.22,103.28L283.20,103.30L282.18,103.32L281.17,103.34L280.14,103.36L279.12,103.37L278.11,103.39L277.08,103.40L276.07,103.41L275.04,103.42L274.02,103.43L273.00,103.43L271.98,103.43L270.96,103.43L269.94,103.44L268.92,103.43L267.90,103.43L266.88,103.42L265.86,103.41L264.84,103.40L263.82,103.38L262.80,103.37L261.78,103.35L260.76,103.32L259.74,103.30L258.72,103.27L257.70,103.24L256.68,103.21L255.66,103.17L254.64,103.13L253.62,103.09L252.60,103.05L251.58,103.00L250.57,102.95L249.54,102.90L248.53,102.84L247.51,102.78L246.49,102.71L245.47,102.65L244.45,102.58L243.44,102.50L242.42,102.42L241.40,102.34L240.38,102.26L239.37,102.17L238.35,102.08L237.34,101.98L236.32,101.88L235.31,101.77L234.30,101.66L233.28,101.55L232.27,101.44L231.25,101.31L230.25,101.19L229.24,101.07L228.18,101.02L228.04,102.04L227.92,103.12L227.77,104.19L227.58,105.25L227.35,106.30L227.06,107.33L226.73,108.35L226.35,109.34L225.90,110.30L225.39,111.25L224.86,112.10L224.25,112.92L223.60,113.70L222.87,114.39L222.09,115.04L221.28,115.62L220.44,116.17L219.56,116.67L218.68,117.12L217.74,117.59L216.81,118.02L215.86,118.42L214.90,118.80L213.93,119.16L212.96,119.50L211.98,119.83L211.00,120.16L210.01,120.47L209.01,120.82L208.02,121.16L207.02,121.49L206.03,121.83L205.03,122.16L204.03,122.49L203.03,122.82L202.03,123.15L201.04,123.49L200.03,123.83L199.04,124.17L198.03,124.52L197.03,124.87L196.04,125.22L195.04,125.58L194.05,125.95L193.06,126.33L192.07,126.71L191.08,127.11L190.15,127.48L189.20,127.88L188.28,128.27L187.35,128.67L186.43,129.08L185.52,129.50L184.60,129.94L183.70,130.39L182.81,130.86L181.92,131.35L181.05,131.86L180.19,132.38L179.32,132.94L178.49,133.51L177.59,134.17L176.75,134.84L175.93,135.54L175.13,136.26L174.35,137.00L173.60,137.78L172.87,138.57L172.16,139.41L171.56,140.16L170.94,140.97L170.37,141.79L169.82,142.63L169.30,143.49L168.81,144.37L168.36,145.26L167.94,146.17L167.54,147.09L167.18,147.99L166.85,148.91L166.55,149.84L166.30,150.79L166.09,151.73L165.92,152.68L165.79,153.64L165.69,154.60L165.63,155.55L165.60,156.48L165.61,157.53L165.68,158.52L165.79,159.52L165.94,160.52L166.13,161.50L166.36,162.49L166.62,163.46L166.93,164.42L167.26,165.37L167.64,166.29L168.05,167.21L168.50,168.14L168.98,169.05L169.49,169.93L170.02,170.79L170.62,171.74L171.23,172.64L171.86,173.53L172.52,174.40L173.20,175.26L173.91,176.11L174.56,176.85L175.24,177.60L175.94,178.34L176.65,179.06L177.37,179.77L178.11,180.46L178.87,181.14L179.64,181.79L180.41,182.43L181.25,183.09L182.09,183.72L182.94,184.33L183.80,184.92L184.67,185.51L185.55,186.09L186.43,186.66L187.31,187.21L188.23,187.78L189.05,188.29L189.90,188.81L190.76,189.33L191.62,189.84L192.48,190.35L193.35,190.86L194.21,191.36L195.08,191.86L195.95,192.36L196.81,192.85L197.72,193.37L198.58,193.85L199.46,194.34L200.34,194.83L201.21,195.32L202.09,195.82L202.97,196.31L203.84,196.81L204.71,197.32L205.58,197.83L206.43,198.33L207.32,198.86L208.23,199.39L209.12,199.91L210.01,200.45L210.89,201.00L211.75,201.57L212.61,202.17L213.44,202.79L214.25,203.44L215.03,204.12L215.72,204.83L216.39,205.57L217.03,206.35L217.63,207.16L218.20,207.98L218.73,208.83L219.23,209.70L219.68,210.59L220.10,211.47L220.52,212.48L220.89,213.46L221.22,214.46L221.53,215.47L221.80,216.49L222.05,217.52L222.27,218.55L222.47,219.59L222.64,220.64L222.80,221.71L222.92,222.69L223.03,223.70L223.12,224.71L223.20,225.72L223.27,226.72L223.44,227.77L224.32,227.79L225.31,227.74L226.30,227.69L227.29,227.65L228.27,227.61L229.25,227.58L230.24,227.54L231.22,227.52L232.21,227.49L233.18,227.47L234.22,227.46L235.24,227.44L236.26,227.43L237.29,227.43L238.30,227.42L239.32,227.42L240.34,227.43L241.37,227.44L242.38,227.45L243.40,227.47L244.42,227.49L245.44,227.51L246.47,227.53L247.48,227.56L248.50,227.59L249.52,227.63L250.54,227.67L251.56,227.71L252.58,227.75L253.60,227.80L254.62,227.85L255.64,227.90L256.66,227.95L257.68,228.01L258.69,228.07L259.71,228.13L260.70,228.13L260.77,228.13L314.57,233.62" ldp_corner="45 179 314 497" />
        <path fill="none" ldp_poly="14" ldp_3dx="365.954498" ldp_3dy="139.814499" ldp_3dz="0.000000" ldp_3drx="0.000000" ldp_3dry="0.000000" ldp_3drz="0.000000" ldp_3drw="1.000000" ldp_cylinder_dir="0" stroke="#231F20" stroke-width="0.476000" stroke-linecap="round" stroke-linejoin="round" stroke-miterlimit="10.000000" d="M168.05,157.65L165.67,157.56" ldp_corner="0 1" />
        <path fill="none" ldp_poly="17" ldp_3dx="365.954498" ldp_3dy="139.814499" ldp_3dz="0.000000" ldp_3drx="0.000000" ldp_3dry="0.000000" ldp_3drz="0.000000" ldp_3drw="1.000000" ldp_cylinder_dir="0" stroke="#231F20" stroke-width="0.476000" stroke-linecap="round" stroke-linejoin="round" stroke-miterlimit="10.000000" d="M218.18,117.45L219.22,119.54L219.24,119.58" ldp_corner="0 2" />
        <path fill="none" stroke="#231F20" stroke-width="0.476000" stroke-linecap="round" stroke-linejoin="round" stroke-miterlimit="10.000000" d="M435.15,172.82L435.19,172.94" />
        <path fill="none" ldp_poly="21" ldp_3dx="395.191498" ldp_3dy="106.260498" ldp_3dz="0.000000" ldp_3drx="0.000000" ldp_3dry="0.000000" ldp_3drz="0.000000" ldp_3drw="1.000000" ldp_cylinder_dir="0" stroke="#231F20" stroke-width="0.476000" stroke-linecap="round" stroke-linejoin="round" stroke-miterlimit="10.000000" d="M394.61,106.00L394.21,106.86L393.77,107.69L393.31,108.54L392.86,109.38L392.39,110.32L392.35,110.43L392.19,111.05L392.17,111.25L392.20,111.79L392.23,111.97L392.55,112.67L392.66,112.82L392.95,113.16L393.05,113.25L393.90,113.85L394.70,114.40L395.51,114.98L396.30,115.57L397.09,116.18L397.86,116.80L398.63,117.44L399.38,118.09L400.12,118.75L400.84,119.41L401.59,120.13L402.32,120.85L403.03,121.58L403.73,122.33L404.41,123.08L405.09,123.85L405.75,124.62L406.40,125.41L407.04,126.20L407.67,127.01L408.29,127.82L408.90,128.64L409.50,129.48L410.09,130.32L410.68,131.17L411.24,132.02L411.80,132.88L412.35,133.75L412.89,134.63L413.41,135.51L413.93,136.40L414.43,137.27L414.92,138.16L415.40,139.05L415.86,139.94L416.33,140.85L416.77,141.75L417.22,142.66L417.65,143.58L418.07,144.49L418.48,145.42L418.89,146.36L419.28,147.29L419.67,148.24L420.05,149.19L420.41,150.13L420.77,151.09L421.12,152.04L421.47,153.00L421.80,153.97L422.12,154.93L422.44,155.90L422.75,156.87L423.05,157.84L423.35,158.83L423.65,159.77L423.96,160.73L424.27,161.68L424.58,162.63L424.89,163.58L425.20,164.53L425.51,165.48L425.83,166.44L426.14,167.39L426.45,168.33L426.78,169.31L427.09,170.28L427.41,171.25L427.73,172.22L428.06,173.21L428.35,174.10L428.65,175.03L428.96,175.96L429.26,176.88L429.57,177.81L429.87,178.73L430.17,179.66L430.48,180.57L430.91,181.49L431.75,181.30L432.69,180.99L433.60,180.69L434.53,180.39L435.46,180.08L436.36,179.78L437.28,179.35L437.09,178.51L436.78,177.57L436.48,176.64L436.17,175.72L435.87,174.79L435.56,173.86L435.26,172.94L434.96,172.01L434.66,171.10L434.34,170.12L434.02,169.17L433.71,168.21L433.39,167.26L433.08,166.30L432.77,165.34L432.45,164.38L432.14,163.43L431.82,162.47L431.51,161.52L431.20,160.56L430.89,159.62L430.57,158.59L430.26,157.58L429.95,156.58L429.63,155.57L429.30,154.56L428.98,153.56L428.65,152.56L428.30,151.56L427.96,150.56L427.59,149.56L427.25,148.62L426.88,147.66L426.50,146.72L426.12,145.79L425.69,144.79L425.26,143.82L424.83,142.85L424.40,141.88L423.97,140.91L423.54,139.93L423.11,138.96L422.65,138.02L422.18,137.08L421.70,136.15L421.21,135.23L420.71,134.31L420.20,133.39L419.68,132.49L419.15,131.59L418.60,130.69L418.05,129.79L417.50,128.95L416.94,128.09L416.37,127.24L415.79,126.41L415.20,125.56L414.60,124.74L413.99,123.92L413.37,123.11L412.74,122.30L412.10,121.51L411.46,120.71L410.80,119.93L410.14,119.15L409.47,118.38L408.78,117.63L408.09,116.87L407.38,116.14L406.67,115.40L405.95,114.68L405.21,113.97L404.48,113.27L403.75,112.59L402.99,111.91L402.23,111.25L401.45,110.60L400.66,109.97L399.86,109.35L399.04,108.75L398.22,108.17L397.39,107.61L396.52,107.06L395.67,106.54L394.64,106.02L394.61,106.00" ldp_corner="0 93 100" />
        <path fill="none" stroke="#231F20" stroke-width="0.476000" stroke-linecap="round" stroke-linejoin="round" stroke-miterlimit="10.000000" d="M379.44,323.18L379.44,323.06" />
        <path fill="none" stroke="#231F20" stroke-width="0.476000" stroke-linecap="round" stroke-linejoin="round" stroke-miterlimit="10.000000" d="M375.32,323.07L375.32,322.95" />
        <path fill="none" stroke="#231F20" stroke-width="0.476000" stroke-linecap="round" stroke-linejoin="round" stroke-miterlimit="10.000000" d="M373.26,323.01L373.27,322.89" />
        <path fill="none" stroke="#231F20" stroke-width="0.476000" stroke-linecap="round" stroke-linejoin="round" stroke-miterlimit="10.000000" d="M367.08,322.85L367.09,322.72" />
        <path fill="none" stroke="#231F20" stroke-width="0.476000" stroke-linecap="round" stroke-linejoin="round" stroke-miterlimit="10.000000" d="M360.91,322.67L360.92,322.55" />
        <path fill="none" stroke="#231F20" stroke-width="0.476000" stroke-linecap="round" stroke-linejoin="round" stroke-miterlimit="10.000000" d="M359.88,322.65L359.88,322.52" />
        <path fill="none" stroke="#231F20" stroke-width="0.476000" stroke-linecap="round" stroke-linejoin="round" stroke-miterlimit="10.000000" d="M353.70,322.48L353.71,322.35" />
        <path fill="none" stroke="#231F20" stroke-width="0.476000" stroke-linecap="round" stroke-linejoin="round" stroke-miterlimit="10.000000" d="M379.47,323.34L379.51,323.46" />
        <path fill="none" ldp_poly="35" ldp_3dx="333.318970" ldp_3dy="513.854492" ldp_3dz="0.000000" ldp_3drx="0.000000" ldp_3dry="0.000000" ldp_3drz="0.000000" ldp_3drw="1.000000" ldp_cylinder_dir="0" stroke="#231F20" stroke-width="0.476000" stroke-linecap="round" stroke-linejoin="round" stroke-miterlimit="10.000000" d="M332.01,560.33L396.84,561.69L396.98,561.69L398.38,561.72L399.36,561.73L400.38,561.75L401.44,561.76L402.44,561.78L403.49,561.79L404.52,561.80L405.53,561.81L406.62,561.83L407.58,561.84L408.62,561.85L409.65,561.85L410.65,561.86L411.68,561.86L412.70,561.87L413.73,561.87L414.73,561.87L415.76,561.87L416.78,561.87L417.80,561.87L418.83,561.87L419.83,561.87L420.88,561.86L421.86,561.86L422.93,561.85L423.90,561.84L424.96,561.84L425.95,561.83L427.00,561.82L428.00,561.81L429.03,561.79L430.04,561.78L431.07,561.77L432.08,561.75L433.13,561.73L434.03,561.72L435.45,561.66L436.03,561.63L436.20,561.62L437.02,561.60L437.17,561.60L438.00,561.58L438.15,561.58L438.97,561.56L439.12,561.56L439.95,561.54L440.10,561.54L440.91,561.52L441.07,561.52L441.82,561.50L442.01,560.63L442.01,560.49L441.99,559.58L441.97,558.56L441.95,557.54L441.93,556.52L441.91,555.50L441.89,554.49L441.87,553.47L441.85,552.45L441.83,551.43L441.81,550.42L441.79,549.39L441.77,548.38L441.74,547.36L441.72,546.34L441.70,545.32L441.68,544.31L441.66,543.28L441.64,542.27L441.62,541.24L441.60,540.23L441.58,539.21L441.56,538.19L441.54,537.17L441.52,536.16L441.50,535.14L441.48,534.12L441.46,533.10L441.44,532.08L441.42,531.06L441.40,530.04L441.38,529.03L441.36,528.01L441.33,526.99L441.31,525.97L441.30,524.95L441.27,523.93L441.25,522.92L441.23,521.90L441.21,520.88L441.19,519.86L441.17,518.84L441.15,517.82L441.13,516.81L441.11,515.79L441.09,514.77L441.07,513.75L441.05,512.73L441.03,511.71L441.01,510.70L440.99,509.67L440.97,508.66L440.95,507.64L440.93,506.62L440.91,505.60L440.89,504.59L440.86,503.57L440.84,502.55L440.82,501.53L440.80,500.51L440.78,499.49L440.76,498.48L440.74,497.45L440.72,496.44L440.70,495.42L440.68,494.40L440.66,493.38L440.64,492.36L440.62,491.35L440.60,490.32L440.58,489.31L440.56,488.29L440.54,487.27L440.52,486.25L440.49,485.24L440.47,484.22L440.46,483.20L440.44,482.18L440.41,481.16L440.39,480.14L440.37,479.13L440.35,478.10L440.33,477.09L440.31,476.07L440.29,475.05L440.27,474.03L440.25,473.02L440.23,472.00L440.21,470.98L440.19,469.96L440.17,468.94L440.15,467.92L440.13,466.90L440.11,465.89L440.09,464.87L440.07,463.85L440.05,462.83L440.02,461.82L440.00,460.79L439.98,459.78L439.96,458.75L439.94,457.74L439.92,456.72L439.90,455.70L439.88,454.68L439.86,453.67L439.84,452.64L439.82,451.63L439.80,450.61L439.78,449.59L439.76,448.57L439.74,447.56L439.72,446.53L439.70,445.52L439.68,444.50L439.65,443.48L439.63,442.46L439.61,441.44L439.59,440.42L439.57,439.41L439.55,438.39L439.53,437.37L439.51,436.35L439.49,435.33L439.47,434.32L439.45,433.30L439.43,432.28L439.41,431.26L439.39,430.24L439.37,429.22L439.35,428.21L439.33,427.18L439.31,426.17L439.29,425.15L439.27,424.13L439.25,423.11L439.23,422.09L439.21,421.07L439.19,420.06L439.16,419.04L439.14,418.02L439.12,417.00L439.10,415.99L439.08,414.96L439.06,413.95L439.04,412.92L439.02,411.91L439.00,410.89L438.98,409.87L438.96,408.85L438.94,407.84L438.92,406.82L438.90,405.80L438.88,404.78L438.86,403.76L438.84,402.75L438.82,401.72L438.79,400.71L438.77,399.69L438.75,398.67L438.73,397.65L438.71,396.63L438.69,395.61L438.67,394.60L438.65,393.58L438.63,392.56L438.61,391.54L438.59,390.52L438.57,389.50L438.55,388.49L438.53,387.47L438.51,386.45L438.49,385.43L438.47,384.41L438.45,383.39L438.43,382.38L438.40,381.36L438.39,380.34L438.37,379.32L438.35,378.30L438.32,377.28L438.30,376.27L438.28,375.25L438.26,374.23L438.24,373.21L438.22,372.19L438.20,371.18L438.18,370.16L438.16,369.14L438.14,368.13L438.12,367.11L438.10,366.09L438.08,365.07L438.06,364.05L438.04,363.03L438.02,362.02L437.99,361.01L437.81,359.98L437.03,359.89L436.86,359.88L436.03,359.90L435.88,359.90L435.05,359.92L434.90,359.92L434.07,359.94L433.93,359.94L433.10,359.96L432.95,359.96L432.09,359.98L431.89,359.99L431.38,359.96L431.26,359.89L431.12,359.11L431.12,358.99L431.10,358.07L431.07,357.04L431.05,356.02L431.03,354.99L431.01,353.97L430.99,352.94L430.97,351.92L430.95,350.89L430.93,349.87L430.91,348.84L430.89,347.82L430.87,346.79L430.85,345.77L430.83,344.75L430.80,343.72L430.78,342.69L430.76,341.67L430.74,340.64L430.72,339.62L430.70,338.60L430.68,337.57L430.66,336.54L430.64,335.52L430.62,334.50L430.60,333.47L430.58,332.45L430.56,331.42L430.54,330.39L430.52,329.37L430.49,328.35L430.47,327.32L430.45,326.30L430.43,325.27L430.41,324.25L430.39,323.22L430.37,322.20L430.35,321.17L430.33,320.15L430.31,319.12L430.29,318.10L430.27,317.07L430.25,316.05L430.23,315.02L430.20,314.00L430.18,312.97L430.16,311.95L430.14,310.92L430.12,309.90L430.10,308.88L430.08,307.85L430.06,306.82L430.04,305.80L430.02,304.77L430.00,303.75L429.98,302.73L429.96,301.70L429.93,300.67L429.91,299.65L429.89,298.62L429.87,297.60L429.85,296.58L429.83,295.55L429.81,294.53L429.79,293.50L429.77,292.47L429.75,291.45L429.73,290.43L429.71,289.40L429.69,288.38L429.66,287.35L429.64,286.33L429.62,285.30L429.60,284.28L429.58,283.25L429.56,282.23L429.54,281.20L429.52,280.18L429.50,279.16L429.48,278.13L429.46,277.10L429.44,276.08L429.42,275.06L429.40,274.03L429.37,273.00L429.35,271.98L429.33,270.96L429.31,269.93L429.29,268.90L429.27,267.88L429.25,266.86L429.23,265.83L429.21,264.81L429.19,263.78L429.17,262.75L429.15,261.73L429.12,260.71L429.10,259.68L429.08,258.66L429.06,257.63L429.04,256.62L428.91,255.55L428.08,255.10L427.13,254.67L426.21,254.22L425.30,253.73L424.40,253.21L423.54,252.67L422.68,252.08L421.86,251.48L421.05,250.85L420.26,250.18L419.50,249.50L418.77,248.80L418.05,248.06L417.36,247.32L416.69,246.55L416.03,245.77L415.40,244.98L414.76,244.16L414.13,243.33L413.53,242.52L412.93,241.66L412.36,240.80L411.82,239.94L411.28,239.06L410.76,238.16L410.28,237.29L409.81,236.40L409.35,235.49L408.92,234.59L408.50,233.67L408.10,232.74L407.73,231.81L407.37,230.87L407.03,229.92L406.71,228.97L406.41,227.99L406.14,227.02L405.87,226.03L405.63,225.05L405.42,224.06L405.22,223.06L405.03,222.08L404.73,221.10L403.89,221.28L403.77,221.32L402.90,221.63L401.94,221.97L400.97,222.32L400.01,222.67L399.04,223.01L398.08,223.36L397.11,223.70L396.15,224.05L395.18,224.40L394.22,224.74L393.25,225.09L392.29,225.44L391.32,225.78L390.36,226.13L389.39,226.47L388.43,226.82L387.46,227.17L386.49,227.51L385.53,227.86L384.56,228.21L383.60,228.55L382.64,228.90L381.67,229.25L380.70,229.59L379.74,229.94L378.77,230.28L377.81,230.63L376.84,230.97L375.87,231.32L374.91,231.67L373.95,232.01L372.98,232.36L372.01,232.71L371.05,233.05L370.09,233.40L369.14,233.74L368.19,234.22L368.38,235.14L368.71,236.17L369.01,237.18L369.30,238.20L369.58,239.23L369.84,240.25L370.09,241.28L370.32,242.31L370.54,243.35L370.74,244.41L370.92,245.38L371.08,246.39L371.23,247.40L371.37,248.41L371.50,249.43L371.61,250.43L371.71,251.45L371.80,252.46L371.88,253.49L371.94,254.50L371.99,255.52L372.02,256.53L372.05,257.56L372.06,258.58L372.07,259.59L372.06,260.61L372.04,261.64L372.01,262.65L371.96,263.67L371.91,264.68L371.85,265.70L371.77,266.72L371.69,267.73L371.60,268.76L371.50,269.76L371.39,270.78L371.28,271.78L371.16,272.79L371.03,273.80L370.89,274.80L370.73,275.81L370.57,276.80L370.39,277.81L370.21,278.80L370.02,279.77L369.81,280.85L369.58,281.90L369.35,282.93L369.11,283.97L368.83,285.03L368.54,286.08L368.24,287.08L367.84,288.30L367.41,289.51L367.09,290.33L367.04,290.46L366.73,291.22L366.20,292.42L365.62,293.58L365.26,294.25L365.16,294.43L364.80,295.03L364.72,295.15L364.18,295.96L363.59,296.75L362.84,297.66L362.06,298.53L361.45,299.17L361.36,299.26L360.67,299.92L360.54,300.04L360.11,300.42L359.93,300.58L359.37,301.04L359.16,301.20L358.88,301.40L358.61,301.60L358.30,301.82L358.02,302.00L357.70,302.21L357.41,302.39L357.08,302.58L356.79,302.75L356.45,302.93L356.16,303.09L355.82,303.26L355.52,303.41L355.17,303.57L354.86,303.71L354.52,303.85L354.22,303.97L353.93,304.08L353.64,304.19L353.35,304.29L353.07,304.39L352.78,304.48L352.50,304.57L352.21,304.65L351.93,304.73L351.64,304.80L351.36,304.87L351.07,304.93L350.80,304.99L350.52,305.04L350.25,305.09L350.02,305.12L349.84,305.15L348.94,305.25L348.78,305.26L348.03,305.31L347.85,305.31L347.06,305.32L346.89,305.31L346.15,305.28L346.01,305.27L345.08,305.19L344.11,305.05L343.03,304.95L342.55,305.75L342.11,306.69L341.67,307.64L341.23,308.58L340.80,309.52L340.36,310.46L339.93,311.41L339.49,312.35L339.06,313.29L338.62,314.24L338.19,315.17L337.75,316.12L337.32,317.06L336.88,318.00L336.45,318.94L336.02,319.88L335.58,320.83L335.14,321.78L334.73,322.67L334.67,322.79L334.30,323.58L333.88,324.50L333.46,325.42L333.04,326.33L332.61,327.25L332.19,328.16L331.77,329.07L331.35,329.99L331.30,330.10L330.94,330.88L330.60,331.90L331.15,332.60L331.24,332.70L331.87,333.33L332.58,334.04L333.28,334.76L334.00,335.47L334.71,336.19L335.42,336.90L336.12,337.61L336.83,338.33L337.56,339.06L337.66,339.17L338.14,339.70L338.20,339.83L338.25,340.72L338.22,341.74L338.19,342.77L338.16,343.79L338.13,344.81L338.10,345.84L338.07,346.86L338.05,347.88L338.02,348.90L337.99,349.92L337.96,350.94L337.93,351.97L337.90,352.99L337.87,354.01L337.84,355.03L337.81,356.06L337.78,357.08L337.75,358.10L337.73,359.13L337.70,360.15L337.67,361.17L337.64,362.19L337.61,363.21L337.58,364.23L337.55,365.26L337.52,366.28L337.49,367.30L337.46,368.32L337.43,369.35L337.41,370.37L337.38,371.39L337.35,372.42L337.32,373.44L337.29,374.46L337.26,375.48L337.23,376.50L337.20,377.53L337.17,378.55L337.14,379.57L337.11,380.59L337.08,381.61L337.06,382.64L337.03,383.66L337.00,384.68L336.97,385.71L336.94,386.72L336.91,387.75L336.88,388.77L336.85,389.80L336.82,390.81L336.79,391.84L336.76,392.86L336.74,393.88L336.71,394.90L336.68,395.93L336.65,396.95L336.62,397.97L336.59,399.00L336.56,400.01L336.53,401.04L336.50,402.06L336.47,403.08L336.44,404.10L336.42,405.13L336.39,406.15L336.36,407.17L336.33,408.19L336.30,409.22L336.27,410.24L336.24,411.26L336.21,412.29L336.18,413.31L336.15,414.33L336.12,415.35L336.10,416.38L336.07,417.39L336.04,418.42L336.01,419.44L335.98,420.46L335.95,421.48L335.92,422.51L335.89,423.53L335.86,424.55L335.83,425.58L335.80,426.60L335.78,427.62L335.75,428.64L335.72,429.66L335.69,430.68L335.66,431.71L335.63,432.73L335.60,433.75L335.57,434.77L335.54,435.80L335.51,436.82L335.48,437.84L335.45,438.87L335.43,439.88L335.40,440.91L335.37,441.93L335.34,442.96L335.31,443.98L335.28,445.00L335.25,446.02L335.22,447.04L335.19,448.06L335.16,449.08L335.13,450.10L335.10,451.12L335.08,452.13L335.05,453.16L335.02,454.18L334.99,455.20L334.96,456.21L334.93,457.24L334.90,458.25L334.87,459.28L334.84,460.29L334.81,461.31L334.79,462.33L334.76,463.34L334.73,464.37L334.70,465.39L334.67,466.41L334.64,467.43L334.61,468.44L334.58,469.47L334.55,470.48L334.53,471.50L334.50,472.52L334.47,473.54L334.44,474.56L334.41,475.58L334.38,476.60L334.35,477.62L334.32,478.64L334.29,479.65L334.26,480.68L334.23,481.69L334.21,482.72L334.18,483.73L334.15,484.75L334.12,485.77L334.09,486.79L334.06,487.81L334.03,488.83L334.00,489.84L333.97,490.87L333.94,491.88L333.92,492.91L333.88,493.93L333.86,494.94L333.83,495.97L333.80,496.98L333.77,498.00L333.74,499.02L333.71,500.04L333.68,501.06L333.65,502.08L333.62,503.09L333.60,504.12L333.57,505.13L333.54,506.16L333.51,507.17L333.48,508.19L333.45,509.22L333.42,510.23L333.39,511.25L333.36,512.27L333.33,513.29L333.31,514.31L333.28,515.33L333.25,516.34L333.22,517.37L333.19,518.38L333.16,519.40L333.13,520.43L333.10,521.44L333.07,522.47L333.04,523.48L333.02,524.50L332.99,525.52L332.96,526.53L332.93,527.56L332.90,528.58L332.87,529.59L332.84,530.62L332.81,531.63L332.78,532.65L332.75,533.67L332.73,534.69L332.70,535.71L332.67,536.73L332.64,537.75L332.61,538.77L332.58,539.78L332.55,540.81L332.52,541.83L332.49,542.84L332.46,543.87L332.44,544.88L332.41,545.90L332.38,546.92L332.35,547.94L332.32,548.97L332.29,549.98L332.26,551.00L332.23,552.02L332.20,553.03L332.17,554.06L332.14,555.07L332.11,556.10L332.09,557.11L332.06,558.13L332.03,559.16L332.02,559.29L331.97,560.08L331.93,560.22L332.01,560.33" ldp_corner="0 52 251 265 368 411 450 568 599" />
        <path fill="none" ldp_poly="53" ldp_3dx="333.318970" ldp_3dy="513.854492" ldp_3dz="0.000000" ldp_3drx="0.000000" ldp_3dry="0.000000" ldp_3drz="0.000000" ldp_3drw="1.000000" ldp_cylinder_dir="0" stroke="#231F20" stroke-width="0.476000" stroke-linecap="round" stroke-linejoin="round" stroke-miterlimit="10.000000" d="M336.38,408.95L338.71,409.02L338.76,409.02" ldp_corner="0 2" />
        <path fill="none" ldp_poly="56" ldp_3dx="333.318970" ldp_3dy="513.854492" ldp_3dz="0.000000" ldp_3drx="0.000000" ldp_3dry="0.000000" ldp_3drz="0.000000" ldp_3drw="1.000000" ldp_cylinder_dir="0" stroke="#231F20" stroke-width="0.476000" stroke-linecap="round" stroke-linejoin="round" stroke-miterlimit="10.000000" d="M361.64,299.08L363.32,300.71L363.35,300.74" ldp_corner="0 2" />
        <path fill="none" ldp_poly="59" ldp_3dx="333.318970" ldp_3dy="513.854492" ldp_3dz="0.000000" ldp_3drx="0.000000" ldp_3dry="0.000000" ldp_3drz="0.000000" ldp_3drw="1.000000" ldp_cylinder_dir="0" stroke="#231F20" stroke-width="0.476000" stroke-linecap="round" stroke-linejoin="round" stroke-miterlimit="10.000000" d="M334.93,459.72L337.27,459.78L337.31,459.78" ldp_corner="0 2" />
        <path fill="none" ldp_poly="62" ldp_3dx="333.318970" ldp_3dy="513.854492" ldp_3dz="0.000000" ldp_3drx="0.000000" ldp_3dry="0.000000" ldp_3drz="0.000000" ldp_3drw="1.000000" ldp_cylinder_dir="0" stroke="#231F20" stroke-width="0.476000" stroke-linecap="round" stroke-linejoin="round" stroke-miterlimit="10.000000" d="M335.18,321.97L335.18,321.84" ldp_corner="0 1" />
        <path fill="none" ldp_poly="65" ldp_3dx="333.318970" ldp_3dy="513.854492" ldp_3dz="0.000000" ldp_3drx="0.000000" ldp_3dry="0.000000" ldp_3drz="0.000000" ldp_3drw="1.000000" ldp_cylinder_dir="0" stroke="#231F20" stroke-width="0.476000" stroke-linecap="round" stroke-linejoin="round" stroke-miterlimit="10.000000" d="M423.03,381.61L438.34,381.30" ldp_corner="0 1" />
        <path fill="none" ldp_poly="68" ldp_3dx="297.161011" ldp_3dy="442.604004" ldp_3dz="0.000000" ldp_3drx="0.000000" ldp_3dry="0.000000" ldp_3drz="0.000000" ldp_3drw="1.000000" ldp_cylinder_dir="0" stroke="#231F20" stroke-width="0.476000" stroke-linecap="round" stroke-linejoin="round" stroke-miterlimit="10.000000" d="M189.64,557.21L189.70,556.25L189.70,555.21L189.70,554.19L189.70,553.17L189.70,552.15L189.70,551.13L189.70,550.11L189.70,549.09L189.70,548.07L189.70,547.04L189.70,546.02L189.70,545.00L189.70,543.98L189.70,542.96L189.70,541.94L189.70,540.91L189.70,539.90L189.70,538.87L189.70,537.85L189.70,536.83L189.70,535.81L189.70,534.79L189.70,533.76L189.70,532.75L189.70,531.73L189.70,530.70L189.70,529.68L189.70,528.66L189.70,527.64L189.70,526.62L189.70,525.59L189.70,524.58L189.70,523.55L189.70,522.53L189.70,521.51L189.70,520.49L189.70,519.47L189.70,518.45L189.70,517.43L189.70,516.40L189.70,515.39L189.70,514.36L189.70,513.34L189.70,512.32L189.70,511.30L189.70,510.28L189.70,509.26L189.70,508.23L189.70,507.22L189.70,506.19L189.70,505.17L189.70,504.15L189.70,503.13L189.70,502.11L189.70,501.09L189.70,500.06L189.70,499.04L189.70,498.02L189.70,497.00L189.70,495.98L189.70,494.96L189.70,493.94L189.70,492.92L189.70,491.89L189.70,490.87L189.70,489.85L189.70,488.83L189.70,487.81L189.70,486.79L189.70,485.77L189.70,484.74L189.70,483.72L189.70,482.70L189.70,481.68L189.70,480.66L189.70,479.64L189.70,478.62L189.70,477.60L189.70,476.57L189.70,475.55L189.70,474.53L189.70,473.51L189.70,472.49L189.70,471.47L189.70,470.44L189.70,469.43L189.70,468.40L189.70,467.38L189.70,466.36L189.70,465.34L189.70,464.32L189.70,463.30L189.70,462.27L189.70,461.26L189.70,460.23L189.70,459.21L189.70,458.19L189.70,457.17L189.70,456.15L189.70,455.12L189.70,454.11L189.70,453.08L189.70,452.07L189.70,451.04L189.70,450.02L189.70,449.00L189.70,447.98L189.70,446.96L189.70,445.93L189.70,444.91L189.70,443.90L189.70,442.87L189.70,441.85L189.70,440.83L189.70,439.81L189.70,438.79L189.70,437.76L189.70,436.74L189.70,435.72L189.70,434.70L189.70,433.68L189.70,432.66L189.70,431.64L189.70,430.61L189.70,429.59L189.70,428.57L189.70,427.55L189.70,426.53L189.70,425.51L189.70,424.49L189.70,423.47L189.70,422.44L189.70,421.43L189.70,420.40L189.70,419.39L189.70,418.36L189.70,417.34L189.70,416.31L189.70,415.30L189.70,414.27L189.70,413.25L189.70,412.23L189.70,411.21L189.70,410.19L189.70,409.17L189.70,408.14L189.70,407.13L189.70,406.10L189.70,405.08L189.70,404.06L189.70,403.04L189.70,402.02L189.70,400.99L189.70,399.98L189.70,398.95L189.70,397.94L189.70,396.91L189.70,395.89L189.70,394.87L189.70,393.85L189.70,392.83L189.70,391.80L189.70,390.79L189.70,389.76L189.70,388.74L189.70,387.72L189.70,386.70L189.70,385.68L189.70,384.65L189.70,383.64L189.70,382.62L189.70,381.59L189.70,380.57L189.70,379.55L189.70,378.53L189.70,377.51L189.70,376.49L189.70,375.46L189.70,374.45L189.70,373.42L189.70,372.40L189.70,371.38L189.70,370.36L189.70,369.34L189.70,368.32L189.70,367.29L189.70,366.27L189.70,365.25L189.70,364.23L189.70,363.21L189.70,362.19L189.70,361.17L189.70,360.14L189.70,359.12L189.70,358.10L189.70,357.08L189.70,356.06L189.70,355.04L189.70,354.02L189.70,353.00L189.70,351.97L189.70,350.95L189.70,349.93L189.70,348.91L189.70,347.89L189.70,346.87L189.70,345.85L189.70,344.83L189.70,343.81L189.70,342.78L189.70,341.76L189.70,340.74L189.70,339.72L189.70,338.70L189.70,337.68L189.70,336.66L189.70,335.64L189.70,334.61L189.70,333.59L189.70,332.57L189.70,331.55L189.70,330.53L189.70,329.50L189.70,328.49L189.70,327.46L189.70,326.44L189.70,325.42L189.70,324.40L189.70,323.38L189.70,322.36L189.70,321.33L189.70,320.31L189.70,319.30L189.70,318.27L189.70,317.25L189.70,316.23L189.70,315.21L189.70,314.19L189.70,313.16L189.70,312.15L189.70,311.12L189.70,310.10L189.70,309.08L189.70,308.06L189.70,307.04L189.70,306.02L189.70,304.99L189.70,303.97L189.70,302.95L189.70,301.93L189.70,300.91L189.70,299.89L189.70,298.87L189.70,297.85L189.70,296.82L189.70,295.80L189.70,294.78L189.70,293.76L189.70,292.74L189.70,291.72L189.70,290.70L189.70,289.68L189.70,288.65L189.70,287.63L189.70,286.61L189.70,285.59L189.70,284.57L189.70,283.54L189.70,282.53L189.70,281.51L189.70,280.48L189.70,279.46L189.70,278.44L189.70,277.42L189.70,276.40L189.70,275.37L189.70,274.36L189.70,273.34L189.70,272.31L189.70,271.29L189.70,270.27L189.70,269.25L189.70,268.23L189.70,267.20L189.70,266.19L189.70,265.16L189.70,264.14L189.70,263.12L189.70,262.10L189.70,261.08L189.70,260.06L189.70,259.03L189.70,258.02L189.70,256.99L189.70,255.97L189.70,254.95L189.70,253.93L189.70,252.91L189.70,251.89L189.70,250.86L189.70,249.84L189.70,248.83L189.70,247.80L189.70,246.78L189.70,245.76L189.70,244.74L189.70,243.72L189.70,242.69L189.76,241.76L190.77,241.57L191.76,241.57L192.78,241.57L193.79,241.56L194.80,241.54L195.89,241.52L196.95,241.48L198.01,241.44L199.06,241.37L200.12,241.29L201.17,241.20L202.22,241.08L203.28,240.94L204.32,240.78L205.36,240.60L206.39,240.38L207.42,240.13L208.45,239.85L209.46,239.54L210.47,239.21L211.49,238.84L212.42,238.50L213.36,238.12L214.30,237.71L215.23,237.26L216.14,236.77L217.03,236.24L217.90,235.67L218.74,235.06L219.55,234.40L220.32,233.71L221.07,232.97L221.78,232.20L222.47,231.46L223.52,231.59L224.49,231.83L225.49,232.07L226.48,232.32L227.47,232.56L228.47,232.81L229.46,233.06L230.46,233.30L231.45,233.55L232.45,233.80L233.44,234.04L234.44,234.29L235.43,234.53L236.43,234.78L237.42,235.02L238.42,235.27L239.41,235.52L240.41,235.76L241.40,236.01L242.40,236.26L243.39,236.50L244.39,236.74L245.38,236.99L246.38,237.24L247.37,237.48L248.37,237.73L249.36,237.98L250.36,238.22L251.35,238.47L252.35,238.71L253.34,238.96L254.34,239.21L255.33,239.45L256.33,239.70L257.32,239.94L258.31,240.19L259.31,240.44L260.22,240.72L260.27,241.75L260.16,242.74L260.06,243.75L259.96,244.76L259.86,245.79L259.78,246.80L259.70,247.82L259.63,248.84L259.57,249.85L259.52,250.87L259.47,251.88L259.43,252.90L259.40,253.91L259.38,254.93L259.36,255.94L259.35,256.97L259.35,257.98L259.36,258.99L259.37,260.03L259.39,261.05L259.42,262.08L259.45,263.11L259.50,264.13L259.55,265.16L259.60,266.19L259.66,267.21L259.72,268.24L259.79,269.27L259.86,270.28L259.93,271.30L260.01,272.31L260.09,273.33L260.18,274.35L260.28,275.36L260.38,276.38L260.49,277.39L260.60,278.41L260.72,279.41L260.86,280.46L261.00,281.49L261.15,282.52L261.30,283.56L261.47,284.58L261.64,285.61L261.83,286.65L262.02,287.67L262.22,288.69L262.43,289.73L262.67,290.69L262.93,291.68L263.19,292.67L263.45,293.66L263.71,294.63L263.99,295.62L264.27,296.58L264.57,297.59L264.88,298.56L265.22,299.54L265.57,300.51L265.94,301.47L266.33,302.42L266.75,303.35L267.20,304.28L267.68,305.18L268.22,306.09L268.72,306.84L268.80,306.95L269.30,307.63L269.38,307.73L269.92,308.38L270.00,308.48L270.57,309.11L270.66,309.20L271.25,309.80L271.34,309.89L271.97,310.47L272.07,310.55L272.72,311.08L272.82,311.16L273.49,311.65L274.37,312.23L275.26,312.74L276.17,313.21L277.10,313.64L278.05,314.02L279.02,314.37L279.99,314.68L281.03,314.97L282.05,315.22L283.09,315.44L284.14,315.62L285.20,315.78L286.25,315.91L287.32,316.01L288.38,316.09L289.45,316.15L290.46,316.24L290.66,317.25L290.72,318.25L290.77,319.27L290.82,320.30L290.88,321.32L290.93,322.34L290.98,323.37L291.04,324.39L291.09,325.41L291.14,326.43L291.19,327.46L291.25,328.48L291.30,329.51L291.35,330.52L291.41,331.55L291.46,332.57L291.51,333.60L291.57,334.62L291.62,335.64L291.67,336.67L291.72,337.69L291.78,338.71L291.83,339.73L291.88,340.76L291.94,341.78L291.99,342.81L292.04,343.83L292.09,344.85L292.15,345.88L292.20,346.90L292.25,347.92L292.31,348.94L292.36,349.96L292.41,350.99L292.47,352.01L292.52,353.04L292.57,354.06L292.62,355.08L292.68,356.11L292.73,357.13L292.78,358.15L292.84,359.17L292.89,360.20L292.94,361.22L293.00,362.25L293.05,363.26L293.10,364.29L293.16,365.31L293.21,366.34L293.26,367.36L293.31,368.38L293.37,369.41L293.42,370.43L293.47,371.46L293.53,372.47L293.58,373.50L293.63,374.52L293.69,375.55L293.74,376.57L293.79,377.59L293.85,378.62L293.90,379.64L293.95,380.66L294.00,381.68L294.06,382.70L294.11,383.73L294.16,384.75L294.22,385.78L294.27,386.80L294.32,387.82L294.38,388.84L294.43,389.87L294.48,390.89L294.53,391.91L294.59,392.94L294.64,393.96L294.69,394.99L294.75,396.01L294.80,397.03L294.85,398.05L294.90,399.08L294.96,400.10L295.01,401.12L295.06,402.15L295.12,403.17L295.17,404.20L295.22,405.22L295.28,406.24L295.33,407.26L295.38,408.29L295.43,409.31L295.49,410.33L295.54,411.35L295.59,412.38L295.65,413.41L295.70,414.42L295.75,415.45L295.81,416.47L295.86,417.49L295.91,418.52L295.96,419.54L296.02,420.56L296.07,421.58L296.12,422.61L296.18,423.64L296.23,424.65L296.28,425.68L296.34,426.70L296.39,427.73L296.44,428.75L296.50,429.77L296.55,430.79L296.60,431.82L296.65,432.84L296.71,433.86L296.76,434.89L296.81,435.91L296.87,436.94L296.92,437.96L296.97,438.98L297.03,440.00L297.08,441.03L297.13,442.05L297.19,443.07L297.24,444.08L297.29,445.10L297.34,446.12L297.40,447.14L297.45,448.16L297.50,449.18L297.55,450.19L297.61,451.21L297.66,452.23L297.71,453.25L297.76,454.27L297.82,455.29L297.87,456.30L297.92,457.32L297.98,458.34L298.03,459.36L298.08,460.37L298.13,461.39L298.19,462.41L298.24,463.43L298.29,464.45L298.35,465.47L298.40,466.48L298.45,467.50L298.50,468.52L298.56,469.54L298.61,470.56L298.66,471.57L298.71,472.59L298.77,473.61L298.82,474.63L298.87,475.65L298.92,476.67L298.98,477.68L299.03,478.70L299.08,479.72L299.14,480.74L299.19,481.76L299.24,482.78L299.29,483.79L299.35,484.81L299.40,485.83L299.45,486.84L299.51,487.87L299.56,488.88L299.61,489.90L299.66,490.92L299.72,491.94L299.77,492.96L299.82,493.98L299.87,494.99L299.93,496.01L299.98,497.03L300.03,498.05L300.08,499.07L300.14,500.09L300.19,501.10L300.24,502.12L300.30,503.14L300.35,504.16L300.40,505.18L300.46,506.19L300.51,507.21L300.56,508.23L300.61,509.25L300.67,510.27L300.72,511.29L300.77,512.30L300.82,513.32L300.88,514.34L300.93,515.36L300.98,516.38L301.04,517.39L301.09,518.41L301.14,519.43L301.19,520.45L301.25,521.47L301.30,522.49L301.35,523.50L301.40,524.52L301.46,525.54L301.51,526.56L301.56,527.58L301.62,528.60L301.67,529.61L301.72,530.63L301.78,531.65L301.83,532.67L301.88,533.69L301.93,534.71L301.99,535.72L302.04,536.74L302.09,537.76L302.14,538.78L302.20,539.80L302.25,540.81L302.30,541.83L302.35,542.85L302.41,543.87L302.46,544.88L302.51,545.90L302.56,546.92L302.62,547.94L302.67,548.96L302.72,549.98L302.78,551.00L302.83,552.01L302.88,553.03L302.93,554.05L302.93,554.99L301.93,555.30L300.96,555.36L299.94,555.40L298.93,555.44L297.92,555.48L296.90,555.52L295.89,555.56L294.88,555.60L293.87,555.64L292.85,555.68L291.84,555.73L290.82,555.77L289.81,555.80L288.80,555.85L287.79,555.89L286.77,555.93L285.76,555.97L284.75,556.01L283.73,556.05L282.72,556.09L281.71,556.13L280.69,556.17L279.68,556.21L278.67,556.25L277.66,556.29L276.64,556.33L275.63,556.37L274.61,556.42L273.60,556.46L272.59,556.50L271.58,556.54L270.56,556.58L269.55,556.62L268.54,556.66L267.52,556.70L266.52,556.74L265.50,556.78L264.48,556.82L263.48,556.86L262.46,556.90L261.45,556.94L260.43,556.98L259.42,557.03L258.40,557.07L257.40,557.11L256.38,557.15L255.37,557.19L254.35,557.23L253.34,557.27L252.33,557.31L251.32,557.35L250.30,557.39L249.29,557.43L248.27,557.47L247.27,557.51L246.25,557.56L245.24,557.60L244.23,557.64L243.21,557.68L242.20,557.72L241.19,557.76L240.18,557.80L239.16,557.84L238.24,557.88L189.76,557.81L189.76,557.81L189.64,557.21" ldp_corner="309 343 381 478 712" />
        <path fill="none" ldp_poly="78" ldp_3dx="297.161011" ldp_3dy="442.604004" ldp_3dz="0.000000" ldp_3drx="0.000000" ldp_3dry="0.000000" ldp_3drz="0.000000" ldp_3drw="1.000000" ldp_cylinder_dir="0" stroke="#231F20" stroke-width="0.476000" stroke-linecap="round" stroke-linejoin="round" stroke-miterlimit="10.000000" d="M295.08,404.00L292.75,404.12L292.71,404.13" ldp_corner="0 2" />
        <path fill="none" ldp_poly="81" ldp_3dx="297.161011" ldp_3dy="442.604004" ldp_3dz="0.000000" ldp_3drx="0.000000" ldp_3dry="0.000000" ldp_3drz="0.000000" ldp_3drw="1.000000" ldp_cylinder_dir="0" stroke="#231F20" stroke-width="0.476000" stroke-linecap="round" stroke-linejoin="round" stroke-miterlimit="10.000000" d="M205.12,377.52L189.77,377.46" ldp_corner="0 1" />
        <path fill="none" ldp_poly="84" ldp_3dx="297.161011" ldp_3dy="442.604004" ldp_3dz="0.000000" ldp_3drx="0.000000" ldp_3dry="0.000000" ldp_3drz="0.000000" ldp_3drw="1.000000" ldp_cylinder_dir="0" stroke="#231F20" stroke-width="0.476000" stroke-linecap="round" stroke-linejoin="round" stroke-miterlimit="10.000000" d="M297.71,454.71L295.38,454.84L295.34,454.84" ldp_corner="0 2" />
        <path fill="none" ldp_poly="87" ldp_3dx="165.285507" ldp_3dy="356.070496" ldp_3dz="0.000000" ldp_3drx="0.000000" ldp_3dry="0.000000" ldp_3drz="0.000000" ldp_3drw="1.000000" ldp_cylinder_dir="0" stroke="#231F20" stroke-width="0.476000" stroke-linecap="round" stroke-linejoin="round" stroke-miterlimit="10.000000" d="M165.35,356.58L165.29,355.58L165.29,354.57L165.29,353.55L165.29,352.53L165.29,351.51L165.29,350.49L165.29,349.47L165.29,348.45L165.29,347.43L165.29,346.41L165.29,345.39L165.29,344.38L165.29,343.35L165.29,342.33L165.29,341.31L165.29,340.30L165.29,339.27L165.29,338.26L165.29,337.24L165.29,336.22L165.29,335.20L165.29,334.18L165.29,333.16L165.29,332.14L165.29,331.12L165.29,330.10L165.29,329.08L165.29,328.06L165.29,327.04L165.29,326.02L165.29,325.00L165.29,323.98L165.29,322.96L165.29,321.95L165.29,320.93L165.29,319.91L165.29,318.89L165.29,317.87L165.29,316.84L165.29,315.83L165.29,314.81L165.29,313.79L165.29,312.77L165.29,311.75L165.29,310.73L165.29,309.71L165.29,308.69L165.29,307.67L165.29,306.65L165.29,305.63L165.29,304.61L165.29,303.59L165.29,302.57L165.29,301.55L165.29,300.54L165.29,299.51L165.29,298.49L165.29,297.48L165.29,296.46L165.29,295.44L165.29,294.42L165.28,293.40L165.29,292.38L165.28,291.36L165.29,290.34L165.28,289.32L165.29,288.30L165.28,287.28L165.29,286.26L165.29,285.24L165.29,284.22L165.29,283.20L165.29,282.19L165.28,281.16L165.29,280.14L165.29,279.12L165.28,278.11L165.29,277.09L165.28,276.07L165.29,275.05L165.28,274.03L165.28,273.01L165.28,271.99L165.29,270.97L165.29,269.95L165.28,268.93L165.29,267.91L165.28,266.89L165.29,265.87L165.29,264.85L165.28,263.83L165.29,262.81L165.28,261.79L165.28,260.77L165.28,259.76L165.28,258.73L165.28,257.71L165.28,256.69L165.28,255.68L165.28,254.66L165.28,253.64L165.28,252.61L165.33,251.67L166.29,251.82L167.21,252.07L168.18,252.28L169.16,252.45L170.14,252.57L171.13,252.66L172.12,252.70L173.10,252.66L174.08,252.58L175.06,252.46L176.03,252.30L177.00,252.09L177.96,251.83L178.83,251.58L179.01,252.57L179.02,253.58L179.02,254.60L179.02,255.61L179.02,256.64L179.02,257.65L179.02,258.67L179.02,259.69L179.02,260.71L179.02,261.73L179.02,262.75L179.02,263.77L179.02,264.79L179.02,265.81L179.02,266.83L179.02,267.85L179.02,268.87L179.02,269.89L179.02,270.91L179.02,271.93L179.02,272.95L179.02,273.97L179.02,274.99L179.02,276.01L179.02,277.03L179.02,278.04L179.02,279.07L179.02,280.08L179.02,281.10L179.02,282.12L179.02,283.14L179.02,284.16L179.02,285.18L179.02,286.20L179.02,287.22L179.02,288.24L179.02,289.26L179.02,290.28L179.02,291.30L179.02,292.32L179.02,293.34L179.02,294.36L179.02,295.38L179.02,296.40L179.02,297.42L179.02,298.44L179.02,299.45L179.02,300.47L179.02,301.50L179.02,302.51L179.02,303.53L179.02,304.55L179.02,305.57L179.02,306.59L179.02,307.61L179.02,308.63L179.02,309.65L179.02,310.67L179.02,311.69L179.02,312.71L179.02,313.73L179.02,314.75L179.02,315.77L179.02,316.79L179.02,317.80L179.02,318.83L179.02,319.85L179.02,320.86L179.02,321.88L179.02,322.90L179.02,323.92L179.02,324.94L179.02,325.96L179.02,326.98L179.02,328.00L179.02,329.02L179.02,330.04L179.02,331.06L179.02,332.08L179.02,333.10L179.02,334.12L179.02,335.14L179.02,336.16L179.02,337.18L179.02,338.20L179.02,339.22L179.02,340.23L179.02,341.26L179.02,342.27L179.02,343.29L179.02,344.31L179.02,345.33L179.02,346.35L179.02,347.37L179.02,348.39L179.02,349.41L179.02,350.43L179.02,351.45L179.02,352.47L179.02,353.49L179.02,354.51L179.02,355.53L179.08,356.52L179.08,356.58L165.35,356.58" ldp_corner="0 103 117 221" />
        <path fill="none" ldp_poly="95" ldp_3dx="172.153000" ldp_3dy="304.443512" ldp_3dz="0.000000" ldp_3drx="0.000000" ldp_3dry="0.000000" ldp_3drz="0.000000" ldp_3drw="1.000000" ldp_cylinder_dir="0" stroke="#231F20" stroke-width="0.340000" stroke-linecap="round" stroke-linejoin="round" stroke-miterlimit="10.000000" d="M172.15,252.77L172.15,356.12L172.15,356.12" ldp_corner="0 2" />
        <path fill="none" ldp_poly="98" ldp_3dx="-365.954498" ldp_3dy="139.814499" ldp_3dz="0.000000" ldp_3drx="0.000000" ldp_3dry="0.000000" ldp_3drz="0.000000" ldp_3drw="1.000000" ldp_cylinder_dir="0" stroke="#231F20" stroke-width="0.476000" stroke-linecap="round" stroke-linejoin="round" stroke-miterlimit="10.000000" d="M570.40,233.62L569.40,233.67L568.40,233.77L567.37,233.87L566.34,233.96L565.32,234.05L564.30,234.14L563.27,234.24L562.25,234.33L561.22,234.42L560.20,234.52L559.17,234.61L558.15,234.70L557.12,234.79L556.10,234.89L555.07,234.98L554.05,235.07L553.02,235.16L552.00,235.26L550.98,235.35L549.95,235.44L548.93,235.54L547.90,235.63L546.88,235.72L545.85,235.82L544.83,235.91L543.80,236.00L542.78,236.09L541.76,236.19L540.73,236.28L539.71,236.37L538.68,236.47L537.66,236.56L536.63,236.65L535.61,236.74L534.58,236.84L533.56,236.93L532.54,237.02L531.51,237.12L530.49,237.21L529.46,237.30L528.44,237.39L527.41,237.49L526.39,237.58L525.38,237.67L524.30,237.65L524.17,236.74L524.10,235.71L524.02,234.70L523.95,233.69L523.88,232.68L523.81,231.67L523.73,230.66L523.66,229.64L523.59,228.63L523.51,227.62L523.44,226.61L523.37,225.60L523.29,224.59L523.22,223.58L523.15,222.56L523.08,221.55L523.00,220.54L522.93,219.53L522.86,218.52L522.78,217.51L522.71,216.49L522.64,215.48L522.57,214.47L522.49,213.46L522.42,212.45L522.35,211.43L522.27,210.42L522.20,209.41L522.13,208.40L522.06,207.39L521.98,206.38L521.91,205.36L521.84,204.35L521.76,203.34L521.69,202.33L521.62,201.32L521.55,200.30L521.47,199.29L521.40,198.28L521.33,197.27L521.25,196.26L521.18,195.25L521.11,194.24L521.04,193.22L520.99,192.20L520.96,191.19L520.92,190.17L520.88,189.15L520.84,188.14L520.80,187.12L520.76,186.10L520.72,185.09L520.69,184.07L520.65,183.05L520.61,182.04L520.57,181.02L520.53,180.01L520.49,178.99L520.46,177.97L520.42,176.95L520.38,175.94L520.34,174.92L520.30,173.90L520.26,172.89L520.22,171.87L520.19,170.85L520.15,169.84L520.11,168.82L520.07,167.80L520.03,166.78L519.99,165.77L519.96,164.75L519.92,163.74L519.88,162.72L519.84,161.70L519.80,160.69L519.76,159.67L519.72,158.66L519.69,157.64L519.65,156.62L519.61,155.60L519.57,154.59L519.53,153.57L519.49,152.55L519.45,151.54L519.42,150.52L519.38,149.50L519.34,148.49L519.30,147.47L519.26,146.46L519.22,145.44L519.19,144.42L519.15,143.40L519.11,142.39L519.07,141.37L519.03,140.36L519.00,139.34L518.99,138.31L518.98,137.29L518.97,136.27L518.97,135.24L518.96,134.22L518.95,133.20L518.95,132.17L518.94,131.15L518.93,130.13L518.93,129.11L518.92,128.08L518.92,127.06L518.91,126.04L518.90,125.02L518.90,123.99L518.89,122.97L518.88,121.95L518.88,120.93L518.87,119.90L518.86,118.88L518.86,117.86L518.85,116.83L518.84,115.81L518.84,114.79L518.83,113.77L518.82,112.74L518.82,111.72L518.81,110.70L518.80,109.68L518.80,108.65L518.79,107.63L518.79,106.61L518.78,105.59L518.77,104.56L518.77,103.54L518.76,102.53L518.87,101.47L519.81,101.42L520.85,101.43L521.87,101.45L522.91,101.46L523.93,101.48L524.96,101.49L525.99,101.51L527.02,101.52L528.05,101.54L529.08,101.55L530.10,101.57L531.13,101.58L532.16,101.60L533.19,101.61L534.22,101.63L535.25,101.64L536.28,101.66L537.30,101.67L538.33,101.69L539.36,101.71L540.39,101.72L541.42,101.73L542.45,101.75L543.48,101.77L544.50,101.78L545.53,101.80L546.56,101.81L547.59,101.83L548.62,101.84L549.65,101.86L550.68,101.87L551.70,101.89L552.73,101.90L553.76,101.92L554.79,101.93L555.82,101.95L556.84,101.96L557.87,101.98L558.90,102.00L559.93,102.01L560.96,102.03L561.99,102.04L563.02,102.06L564.03,102.09L565.05,102.12L566.07,102.15L567.09,102.19L568.11,102.22L569.13,102.25L570.15,102.29L571.17,102.33L572.19,102.36L573.21,102.40L574.22,102.43L575.24,102.47L576.27,102.51L577.28,102.54L578.31,102.58L579.32,102.62L580.34,102.65L581.37,102.69L582.38,102.73L583.40,102.77L584.43,102.80L585.44,102.84L586.46,102.87L587.48,102.90L588.50,102.94L589.52,102.97L590.54,103.01L591.56,103.04L592.58,103.07L593.61,103.10L594.62,103.13L595.64,103.16L596.67,103.18L597.68,103.21L598.71,103.24L599.72,103.26L600.74,103.28L601.77,103.30L602.79,103.32L603.80,103.34L604.82,103.36L605.84,103.37L606.86,103.39L607.89,103.40L608.90,103.41L609.92,103.42L610.95,103.43L611.96,103.43L612.99,103.43L614.01,103.43L615.02,103.44L616.05,103.43L617.07,103.43L618.09,103.42L619.11,103.41L620.13,103.40L621.15,103.38L622.17,103.37L623.19,103.35L624.21,103.32L625.23,103.30L626.25,103.27L627.27,103.24L628.29,103.21L629.31,103.17L630.33,103.13L631.35,103.09L632.37,103.05L633.39,103.00L634.40,102.95L635.42,102.90L636.44,102.84L637.46,102.78L638.48,102.71L639.49,102.65L640.51,102.58L641.53,102.50L642.55,102.42L643.57,102.34L644.58,102.26L645.60,102.17L646.61,102.08L647.62,101.98L648.64,101.88L649.66,101.77L650.67,101.66L651.69,101.55L652.70,101.44L653.72,101.31L654.72,101.19L655.72,101.07L656.79,101.02L656.93,102.04L657.05,103.12L657.20,104.19L657.39,105.25L657.62,106.30L657.90,107.33L658.24,108.35L658.62,109.34L659.06,110.30L659.57,111.25L660.11,112.10L660.71,112.92L661.37,113.70L662.09,114.39L662.88,115.04L663.69,115.62L664.53,116.17L665.41,116.67L666.28,117.12L667.23,117.59L668.16,118.02L669.11,118.42L670.07,118.80L671.03,119.16L672.01,119.50L672.99,119.83L673.97,120.16L674.96,120.47L675.95,120.82L676.95,121.16L677.95,121.49L678.94,121.83L679.94,122.16L680.94,122.49L681.93,122.82L682.94,123.15L683.93,123.49L684.94,123.83L685.93,124.17L686.93,124.52L687.93,124.87L688.93,125.22L689.92,125.58L690.92,125.95L691.91,126.33L692.90,126.71L693.89,127.11L694.82,127.48L695.77,127.88L696.69,128.27L697.62,128.67L698.54,129.08L699.45,129.50L700.37,129.94L701.27,130.39L702.16,130.86L703.05,131.35L703.92,131.86L704.78,132.38L705.65,132.94L706.48,133.51L707.37,134.17L708.21,134.84L709.04,135.54L709.84,136.26L710.62,137.00L711.37,137.78L712.09,138.57L712.81,139.41L713.41,140.16L714.02,140.97L714.60,141.79L715.15,142.63L715.67,143.49L716.15,144.37L716.61,145.26L717.03,146.17L717.42,147.09L717.79,147.99L718.12,148.91L718.41,149.84L718.67,150.79L718.88,151.73L719.05,152.68L719.18,153.64L719.28,154.60L719.34,155.55L719.36,156.48L719.36,157.53L719.29,158.52L719.17,159.52L719.02,160.52L718.84,161.50L718.61,162.49L718.35,163.46L718.04,164.42L717.71,165.37L717.33,166.29L716.92,167.21L716.47,168.14L715.98,169.05L715.48,169.93L714.95,170.79L714.35,171.74L713.74,172.64L713.10,173.53L712.45,174.40L711.77,175.26L711.05,176.11L710.41,176.85L709.73,177.60L709.03,178.34L708.32,179.06L707.59,179.77L706.85,180.46L706.10,181.14L705.33,181.79L704.56,182.43L703.72,183.09L702.87,183.72L702.03,184.33L701.16,184.92L700.30,185.51L699.42,186.09L698.54,186.66L697.66,187.21L696.74,187.78L695.92,188.29L695.07,188.81L694.20,189.33L693.35,189.84L692.48,190.35L691.62,190.86L690.76,191.36L689.89,191.86L689.02,192.36L688.16,192.85L687.25,193.37L686.38,193.85L685.51,194.34L684.63,194.83L683.75,195.32L682.88,195.82L682.00,196.31L681.13,196.81L680.26,197.32L679.39,197.83L678.53,198.33L677.65,198.86L676.74,199.39L675.85,199.91L674.96,200.45L674.08,201.00L673.21,201.57L672.36,202.17L671.53,202.79L670.72,203.44L669.93,204.12L669.24,204.83L668.58,205.57L667.94,206.35L667.34,207.16L666.77,207.98L666.24,208.83L665.74,209.70L665.28,210.59L664.87,211.47L664.44,212.48L664.08,213.46L663.74,214.46L663.44,215.47L663.16,216.49L662.92,217.52L662.69,218.55L662.50,219.59L662.33,220.64L662.17,221.71L662.05,222.69L661.94,223.70L661.85,224.71L661.77,225.72L661.70,226.72L661.52,227.77L660.65,227.79L659.66,227.74L658.67,227.69L657.68,227.65L656.70,227.61L655.72,227.58L654.73,227.54L653.75,227.52L652.76,227.49L651.79,227.47L650.75,227.46L649.73,227.44L648.71,227.43L647.68,227.43L646.66,227.42L645.65,227.42L644.63,227.43L643.60,227.44L642.59,227.45L641.56,227.47L640.54,227.49L639.52,227.51L638.50,227.53L637.48,227.56L636.46,227.59L635.45,227.63L634.43,227.67L633.41,227.71L632.39,227.75L631.37,227.80L630.35,227.85L629.33,227.90L628.31,227.95L627.29,228.01L626.27,228.07L625.25,228.13L624.26,228.13L624.20,228.13L570.40,233.62" ldp_corner="45 179 314 497" />
        <path fill="none" ldp_poly="106" ldp_3dx="-365.954498" ldp_3dy="139.814499" ldp_3dz="0.000000" ldp_3drx="0.000000" ldp_3dry="0.000000" ldp_3drz="0.000000" ldp_3drw="1.000000" ldp_cylinder_dir="0" stroke="#231F20" stroke-width="0.476000" stroke-linecap="round" stroke-linejoin="round" stroke-miterlimit="10.000000" d="M716.91,157.65L719.30,157.56" ldp_corner="0 1" />
        <path fill="none" ldp_poly="109" ldp_3dx="-365.954498" ldp_3dy="139.814499" ldp_3dz="0.000000" ldp_3drx="0.000000" ldp_3dry="0.000000" ldp_3drz="0.000000" ldp_3drw="1.000000" ldp_cylinder_dir="0" stroke="#231F20" stroke-width="0.476000" stroke-linecap="round" stroke-linejoin="round" stroke-miterlimit="10.000000" d="M666.79,117.45L665.75,119.54L665.73,119.58" ldp_corner="0 2" />
        <path fill="none" ldp_poly="112" ldp_3dx="379.955994" ldp_3dy="323.135498" ldp_3dz="0.000000" ldp_3drx="0.000000" ldp_3dry="0.000000" ldp_3drz="0.000000" ldp_3drw="1.000000" ldp_cylinder_dir="0" stroke="#231F20" stroke-width="0.476000" stroke-linecap="round" stroke-linejoin="round" stroke-miterlimit="10.000000" d="M379.44,323.18L380.35,323.05L379.56,323.44L379.51,323.47" ldp_corner="0 1 3" />
        <path fill="none" ldp_poly="117" ldp_3dx="379.955994" ldp_3dy="323.135498" ldp_3dz="0.000000" ldp_3drx="0.000000" ldp_3dry="0.000000" ldp_3drz="0.000000" ldp_3drw="1.000000" ldp_cylinder_dir="0" stroke="#231F20" stroke-width="0.476000" stroke-linecap="round" stroke-linejoin="round" stroke-miterlimit="10.000000" d="M379.44,323.06L378.43,323.09L377.41,323.07L376.38,323.04L375.37,323.07L375.32,323.07" ldp_corner="0 5" />
        <path fill="none" ldp_poly="120" ldp_3dx="379.955994" ldp_3dy="323.135498" ldp_3dz="0.000000" ldp_3drx="0.000000" ldp_3dry="0.000000" ldp_3drz="0.000000" ldp_3drw="1.000000" ldp_cylinder_dir="0" stroke="#231F20" stroke-width="0.476000" stroke-linecap="round" stroke-linejoin="round" stroke-miterlimit="10.000000" d="M375.32,322.95L374.31,322.98L373.30,323.01L373.26,323.01" ldp_corner="0 3" />
        <path fill="none" ldp_poly="123" ldp_3dx="379.955994" ldp_3dy="323.135498" ldp_3dz="0.000000" ldp_3drx="0.000000" ldp_3dry="0.000000" ldp_3drz="0.000000" ldp_3drw="1.000000" ldp_cylinder_dir="0" stroke="#231F20" stroke-width="0.476000" stroke-linecap="round" stroke-linejoin="round" stroke-miterlimit="10.000000" d="M373.27,322.89L372.25,322.92L371.23,322.90L370.20,322.87L369.18,322.84L368.14,322.81L367.14,322.84L367.08,322.85" ldp_corner="0 7" />
        <path fill="none" ldp_poly="126" ldp_3dx="379.955994" ldp_3dy="323.135498" ldp_3dz="0.000000" ldp_3drx="0.000000" ldp_3dry="0.000000" ldp_3drz="0.000000" ldp_3drw="1.000000" ldp_cylinder_dir="0" stroke="#231F20" stroke-width="0.476000" stroke-linecap="round" stroke-linejoin="round" stroke-miterlimit="10.000000" d="M367.09,322.72L366.08,322.75L365.05,322.73L364.03,322.70L363.00,322.67L361.96,322.64L360.96,322.67L360.91,322.67" ldp_corner="0 7" />
        <path fill="none" ldp_poly="129" ldp_3dx="379.955994" ldp_3dy="323.135498" ldp_3dz="0.000000" ldp_3drx="0.000000" ldp_3dry="0.000000" ldp_3drz="0.000000" ldp_3drw="1.000000" ldp_cylinder_dir="0" stroke="#231F20" stroke-width="0.476000" stroke-linecap="round" stroke-linejoin="round" stroke-miterlimit="10.000000" d="M360.92,322.55L359.90,322.65L359.88,322.65" ldp_corner="0 2" />
        <path fill="none" ldp_poly="132" ldp_3dx="379.955994" ldp_3dy="323.135498" ldp_3dz="0.000000" ldp_3drx="0.000000" ldp_3dry="0.000000" ldp_3drz="0.000000" ldp_3drw="1.000000" ldp_cylinder_dir="0" stroke="#231F20" stroke-width="0.476000" stroke-linecap="round" stroke-linejoin="round" stroke-miterlimit="10.000000" d="M359.88,322.52L358.87,322.55L357.85,322.53L356.82,322.50L355.79,322.47L354.76,322.45L353.76,322.48L353.70,322.48" ldp_corner="0 7" />
        <path fill="none" ldp_poly="135" ldp_3dx="379.955994" ldp_3dy="323.135498" ldp_3dz="0.000000" ldp_3drx="0.000000" ldp_3dry="0.000000" ldp_3drz="0.000000" ldp_3drw="1.000000" ldp_cylinder_dir="0" stroke="#231F20" stroke-width="0.476000" stroke-linecap="round" stroke-linejoin="round" stroke-miterlimit="10.000000" d="M353.71,322.35L352.70,322.38L351.68,322.36L350.65,322.33L349.62,322.30L348.59,322.27L347.56,322.25L346.53,322.22L345.50,322.19L344.47,322.16L343.44,322.13L342.41,322.11L341.39,322.08L340.35,322.05L339.32,322.02L338.30,321.99L337.26,321.97L336.24,321.94L335.24,321.97L335.18,321.97" ldp_corner="0 19" />
        <path fill="none" ldp_poly="138" ldp_3dx="379.955994" ldp_3dy="323.135498" ldp_3dz="0.000000" ldp_3drx="0.000000" ldp_3dry="0.000000" ldp_3drz="0.000000" ldp_3drw="1.000000" ldp_cylinder_dir="0" stroke="#231F20" stroke-width="0.476000" stroke-linecap="round" stroke-linejoin="round" stroke-miterlimit="10.000000" d="M338.34,339.76L339.26,339.33L340.21,338.95L341.16,338.57L342.12,338.19L343.08,337.81L344.03,337.43L344.99,337.06L345.95,336.68L346.91,336.30L347.87,335.92L348.82,335.54L349.78,335.16L350.74,334.78L351.69,334.40L352.65,334.02L353.61,333.65L354.57,333.27L355.53,332.89L356.48,332.51L357.44,332.13L358.40,331.75L359.35,331.37L360.31,330.99L361.27,330.61L362.23,330.24L363.18,329.86L364.14,329.48L365.10,329.10L366.06,328.72L367.02,328.34L367.97,327.96L368.93,327.58L369.89,327.20L370.85,326.83L371.80,326.45L372.76,326.07L373.72,325.69L374.68,325.31L375.63,324.93L376.59,324.55L377.55,324.17L378.51,323.79L379.41,323.37L379.47,323.34" ldp_corner="0 44" />
        <path fill="none" ldp_poly="141" ldp_3dx="-333.318970" ldp_3dy="513.854492" ldp_3dz="0.000000" ldp_3drx="0.000000" ldp_3dry="0.000000" ldp_3drz="0.000000" ldp_3drw="1.000000" ldp_cylinder_dir="0" stroke="#231F20" stroke-width="0.476000" stroke-linecap="round" stroke-linejoin="round" stroke-miterlimit="10.000000" d="M332.01,564.38L396.84,563.02L396.98,563.01L398.38,562.99L399.36,562.97L400.38,562.95L401.44,562.94L402.44,562.92L403.49,562.91L404.52,562.90L405.53,562.89L406.62,562.88L407.58,562.87L408.62,562.86L409.65,562.85L410.65,562.84L411.68,562.84L412.70,562.84L413.73,562.83L414.73,562.83L415.76,562.83L416.78,562.83L417.80,562.83L418.83,562.83L419.83,562.84L420.88,562.84L421.86,562.84L422.93,562.85L423.90,562.86L424.96,562.86L425.95,562.87L427.00,562.88L428.00,562.90L429.03,562.91L430.04,562.92L431.07,562.94L432.08,562.95L433.13,562.97L434.03,562.98L435.45,563.04L436.03,563.08L436.20,563.08L437.02,563.10L437.17,563.11L438.00,563.12L438.15,563.13L438.97,563.14L439.12,563.15L439.95,563.16L440.10,563.17L440.91,563.18L441.07,563.18L441.82,563.20L442.01,564.07L442.01,564.21L441.99,565.12L441.97,566.14L441.95,567.16L441.93,568.18L441.91,569.20L441.89,570.21L441.87,571.23L441.85,572.25L441.83,573.27L441.81,574.29L441.79,575.31L441.77,576.32L441.74,577.35L441.72,578.36L441.70,579.38L441.68,580.40L441.66,581.42L441.64,582.43L441.62,583.46L441.60,584.47L441.58,585.49L441.56,586.51L441.54,587.53L441.52,588.55L441.50,589.56L441.48,590.58L441.46,591.60L441.44,592.62L441.42,593.64L441.40,594.66L441.38,595.67L441.36,596.69L441.33,597.71L441.31,598.73L441.30,599.75L441.27,600.77L441.25,601.78L441.23,602.81L441.21,603.82L441.19,604.84L441.17,605.86L441.15,606.88L441.13,607.89L441.11,608.92L441.09,609.93L441.07,610.95L441.05,611.97L441.03,612.99L441.01,614.00L440.99,615.03L440.97,616.04L440.95,617.06L440.93,618.08L440.91,619.10L440.89,620.12L440.86,621.13L440.84,622.15L440.82,623.17L440.80,624.19L440.78,625.21L440.76,626.23L440.74,627.25L440.72,628.27L440.70,629.28L440.68,630.30L440.66,631.32L440.64,632.34L440.62,633.35L440.60,634.38L440.58,635.39L440.56,636.41L440.54,637.43L440.52,638.45L440.49,639.47L440.47,640.48L440.46,641.50L440.44,642.52L440.41,643.54L440.39,644.56L440.37,645.57L440.35,646.60L440.33,647.61L440.31,648.63L440.29,649.65L440.27,650.67L440.25,651.68L440.23,652.71L440.21,653.72L440.19,654.74L440.17,655.76L440.15,656.78L440.13,657.80L440.11,658.82L440.09,659.84L440.07,660.85L440.05,661.87L440.02,662.89L440.00,663.91L439.98,664.92L439.96,665.95L439.94,666.96L439.92,667.98L439.90,669.00L439.88,670.02L439.86,671.04L439.84,672.06L439.82,673.07L439.80,674.09L439.78,675.11L439.76,676.13L439.74,677.14L439.72,678.17L439.70,679.18L439.68,680.21L439.65,681.22L439.63,682.24L439.61,683.26L439.59,684.28L439.57,685.29L439.55,686.31L439.53,687.33L439.51,688.35L439.49,689.37L439.47,690.39L439.45,691.41L439.43,692.42L439.41,693.44L439.39,694.46L439.37,695.48L439.35,696.49L439.33,697.52L439.31,698.53L439.29,699.55L439.27,700.57L439.25,701.59L439.23,702.61L439.21,703.63L439.19,704.64L439.16,705.66L439.14,706.68L439.12,707.70L439.10,708.72L439.08,709.74L439.06,710.75L439.04,711.78L439.02,712.79L439.00,713.81L438.98,714.83L438.96,715.85L438.94,716.87L438.92,717.89L438.90,718.90L438.88,719.92L438.86,720.94L438.84,721.96L438.82,722.98L438.79,723.99L438.77,725.02L438.75,726.03L438.73,727.05L438.71,728.07L438.69,729.09L438.67,730.11L438.65,731.12L438.63,732.14L438.61,733.16L438.59,734.18L438.57,735.20L438.55,736.22L438.53,737.23L438.51,738.25L438.49,739.27L438.47,740.29L438.45,741.31L438.43,742.33L438.40,743.34L438.39,744.36L438.37,745.38L438.35,746.40L438.32,747.42L438.30,748.44L438.28,749.45L438.26,750.47L438.24,751.49L438.22,752.51L438.20,753.52L438.18,754.54L438.16,755.56L438.14,756.58L438.12,757.60L438.10,758.62L438.08,759.63L438.06,760.65L438.04,761.67L438.02,762.68L437.99,763.69L437.81,764.72L437.03,764.82L436.86,764.82L436.03,764.80L435.88,764.80L435.05,764.78L434.90,764.78L434.07,764.76L433.93,764.76L433.10,764.74L432.95,764.74L432.09,764.72L431.89,764.72L431.38,764.74L431.26,764.81L431.12,765.59L431.12,765.72L431.10,766.63L431.07,767.66L431.05,768.68L431.03,769.71L431.01,770.73L430.99,771.76L430.97,772.79L430.95,773.81L430.93,774.83L430.91,775.86L430.89,776.88L430.87,777.91L430.85,778.94L430.83,779.96L430.80,780.98L430.78,782.01L430.76,783.03L430.74,784.06L430.72,785.08L430.70,786.11L430.68,787.13L430.66,788.16L430.64,789.18L430.62,790.21L430.60,791.23L430.58,792.25L430.56,793.28L430.54,794.31L430.52,795.33L430.49,796.36L430.47,797.38L430.45,798.41L430.43,799.43L430.41,800.45L430.39,801.48L430.37,802.51L430.35,803.53L430.33,804.55L430.31,805.58L430.29,806.60L430.27,807.63L430.25,808.66L430.23,809.68L430.20,810.70L430.18,811.73L430.16,812.75L430.14,813.78L430.12,814.80L430.10,815.82L430.08,816.85L430.06,817.88L430.04,818.90L430.02,819.93L430.00,820.95L429.98,821.98L429.96,823.00L429.93,824.03L429.91,825.05L429.89,826.08L429.87,827.10L429.85,828.13L429.83,829.15L429.81,830.17L429.79,831.20L429.77,832.23L429.75,833.25L429.73,834.27L429.71,835.30L429.69,836.32L429.66,837.35L429.64,838.37L429.62,839.40L429.60,840.42L429.58,841.45L429.56,842.47L429.54,843.50L429.52,844.53L429.50,845.55L429.48,846.57L429.46,847.60L429.44,848.62L429.42,849.65L429.40,850.67L429.37,851.70L429.35,852.72L429.33,853.75L429.31,854.77L429.29,855.80L429.27,856.82L429.25,857.85L429.23,858.87L429.21,859.89L429.19,860.92L429.17,861.95L429.15,862.97L429.12,864.00L429.10,865.02L429.08,866.04L429.06,867.07L429.04,868.08L428.91,869.15L428.08,869.60L427.13,870.03L426.21,870.48L425.30,870.97L424.40,871.49L423.54,872.03L422.68,872.62L421.86,873.22L421.05,873.85L420.26,874.52L419.50,875.20L418.77,875.90L418.05,876.64L417.36,877.38L416.69,878.15L416.03,878.93L415.40,879.72L414.76,880.54L414.13,881.37L413.53,882.19L412.93,883.04L412.36,883.90L411.82,884.76L411.28,885.65L410.76,886.55L410.28,887.41L409.81,888.30L409.35,889.21L408.92,890.11L408.50,891.03L408.10,891.96L407.73,892.89L407.37,893.83L407.03,894.78L406.71,895.73L406.41,896.71L406.14,897.68L405.87,898.67L405.63,899.65L405.42,900.64L405.22,901.64L405.03,902.62L404.73,903.60L403.89,903.42L403.77,903.39L402.90,903.08L401.94,902.73L400.97,902.38L400.01,902.04L399.04,901.69L398.08,901.34L397.11,901.00L396.15,900.65L395.18,900.30L394.22,899.96L393.25,899.61L392.29,899.27L391.32,898.92L390.36,898.57L389.39,898.23L388.43,897.88L387.46,897.54L386.49,897.19L385.53,896.84L384.56,896.49L383.60,896.15L382.64,895.80L381.67,895.46L380.70,895.11L379.74,894.77L378.77,894.42L377.81,894.07L376.84,893.73L375.87,893.38L374.91,893.03L373.95,892.69L372.98,892.34L372.01,891.99L371.05,891.65L370.09,891.30L369.14,890.96L368.19,890.49L368.38,889.56L368.71,888.53L369.01,887.52L369.30,886.50L369.58,885.47L369.84,884.45L370.09,883.42L370.32,882.39L370.54,881.35L370.74,880.29L370.92,879.32L371.08,878.31L371.23,877.30L371.37,876.29L371.50,875.28L371.61,874.27L371.71,873.25L371.80,872.24L371.88,871.22L371.94,870.20L371.99,869.18L372.02,868.17L372.05,867.15L372.06,866.12L372.07,865.11L372.06,864.09L372.04,863.07L372.01,862.06L371.96,861.03L371.91,860.02L371.85,859.00L371.77,857.98L371.69,856.97L371.60,855.95L371.50,854.94L371.39,853.92L371.28,852.92L371.16,851.91L371.03,850.91L370.89,849.90L370.73,848.90L370.57,847.90L370.39,846.90L370.21,845.90L370.02,844.93L369.81,843.85L369.58,842.80L369.35,841.77L369.11,840.73L368.83,839.67L368.54,838.62L368.24,837.62L367.84,836.40L367.41,835.20L367.09,834.37L367.04,834.24L366.73,833.49L366.20,832.28L365.62,831.12L365.26,830.45L365.16,830.28L364.80,829.67L364.72,829.55L364.18,828.74L363.59,827.96L362.84,827.04L362.06,826.17L361.45,825.53L361.36,825.44L360.67,824.78L360.54,824.66L360.11,824.28L359.93,824.13L359.37,823.67L359.16,823.51L358.88,823.30L358.61,823.10L358.30,822.89L358.02,822.70L357.70,822.49L357.41,822.32L357.08,822.12L356.79,821.95L356.45,821.77L356.16,821.61L355.82,821.44L355.52,821.29L355.17,821.13L354.86,821.00L354.52,820.85L354.22,820.73L353.93,820.62L353.64,820.51L353.35,820.41L353.07,820.31L352.78,820.22L352.50,820.14L352.21,820.05L351.93,819.98L351.64,819.90L351.36,819.84L351.07,819.77L350.80,819.71L350.52,819.66L350.25,819.62L350.02,819.58L349.84,819.56L348.94,819.45L348.78,819.44L348.03,819.40L347.85,819.39L347.06,819.38L346.89,819.39L346.15,819.42L346.01,819.43L345.08,819.52L344.11,819.66L343.03,819.75L342.55,818.96L342.11,818.01L341.67,817.06L341.23,816.12L340.80,815.18L340.36,814.24L339.93,813.30L339.49,812.35L339.06,811.42L338.62,810.47L338.19,809.53L337.75,808.59L337.32,807.65L336.88,806.70L336.45,805.76L336.02,804.82L335.58,803.88L335.14,802.92L334.73,802.03L334.67,801.92L334.30,801.12L333.88,800.20L333.46,799.29L333.04,798.37L332.61,797.46L332.19,796.55L331.77,795.63L331.35,794.71L331.30,794.60L330.94,793.82L330.60,792.80L331.15,792.10L331.24,792.00L331.87,791.37L332.58,790.66L333.28,789.95L334.00,789.23L334.71,788.52L335.42,787.80L336.12,787.09L336.83,786.37L337.56,785.64L337.66,785.53L338.14,785.00L338.20,784.88L338.25,783.99L338.22,782.96L338.19,781.93L338.16,780.91L338.13,779.89L338.10,778.86L338.07,777.85L338.05,776.82L338.02,775.80L337.99,774.78L337.96,773.76L337.93,772.73L337.90,771.71L337.87,770.69L337.84,769.67L337.81,768.64L337.78,767.62L337.75,766.60L337.73,765.57L337.70,764.55L337.67,763.54L337.64,762.51L337.61,761.49L337.58,760.47L337.55,759.44L337.52,758.42L337.49,757.40L337.46,756.38L337.43,755.35L337.41,754.34L337.38,753.31L337.35,752.28L337.32,751.27L337.29,750.25L337.26,749.22L337.23,748.20L337.20,747.18L337.17,746.15L337.14,745.13L337.11,744.11L337.08,743.09L337.06,742.06L337.03,741.04L337.00,740.02L336.97,738.99L336.94,737.98L336.91,736.95L336.88,735.93L336.85,734.90L336.82,733.89L336.79,732.86L336.76,731.84L336.74,730.82L336.71,729.80L336.68,728.77L336.65,727.75L336.62,726.74L336.59,725.70L336.56,724.69L336.53,723.66L336.50,722.64L336.47,721.62L336.44,720.60L336.42,719.57L336.39,718.55L336.36,717.53L336.33,716.51L336.30,715.48L336.27,714.46L336.24,713.44L336.21,712.41L336.18,711.40L336.15,710.38L336.12,709.35L336.10,708.33L336.07,707.31L336.04,706.28L336.01,705.26L335.98,704.24L335.95,703.22L335.92,702.19L335.89,701.17L335.86,700.15L335.83,699.12L335.80,698.11L335.78,697.08L335.75,696.06L335.72,695.04L335.69,694.02L335.66,692.99L335.63,691.97L335.60,690.95L335.57,689.93L335.54,688.90L335.51,687.88L335.48,686.86L335.45,685.83L335.43,684.82L335.40,683.80L335.37,682.77L335.34,681.75L335.31,680.73L335.28,679.70L335.25,678.68L335.22,677.66L335.19,676.64L335.16,675.62L335.13,674.61L335.10,673.58L335.08,672.57L335.05,671.54L335.02,670.52L334.99,669.51L334.96,668.49L334.93,667.46L334.90,666.45L334.87,665.42L334.84,664.41L334.81,663.39L334.79,662.37L334.76,661.36L334.73,660.33L334.70,659.32L334.67,658.29L334.64,657.27L334.61,656.26L334.58,655.23L334.55,654.22L334.53,653.20L334.50,652.18L334.47,651.16L334.44,650.14L334.41,649.12L334.38,648.10L334.35,647.08L334.32,646.06L334.29,645.05L334.26,644.02L334.23,643.01L334.21,641.98L334.18,640.97L334.15,639.95L334.12,638.93L334.09,637.91L334.06,636.89L334.03,635.87L334.00,634.86L333.97,633.83L333.94,632.82L333.92,631.79L333.88,630.78L333.86,629.76L333.83,628.73L333.80,627.72L333.77,626.70L333.74,625.68L333.71,624.66L333.68,623.64L333.65,622.62L333.62,621.61L333.60,620.58L333.57,619.57L333.54,618.55L333.51,617.53L333.48,616.51L333.45,615.48L333.42,614.47L333.39,613.45L333.36,612.43L333.33,611.42L333.31,610.39L333.28,609.37L333.25,608.36L333.22,607.33L333.19,606.32L333.16,605.30L333.13,604.28L333.10,603.26L333.07,602.24L333.04,601.22L333.02,600.20L332.99,599.18L332.96,598.17L332.93,597.14L332.90,596.13L332.87,595.11L332.84,594.08L332.81,593.07L332.78,592.05L332.75,591.03L332.73,590.01L332.70,588.99L332.67,587.97L332.64,586.95L332.61,585.93L332.58,584.92L332.55,583.89L332.52,582.88L332.49,581.86L332.46,580.83L332.44,579.82L332.41,578.80L332.38,577.78L332.35,576.76L332.32,575.74L332.29,574.72L332.26,573.70L332.23,572.68L332.20,571.67L332.17,570.64L332.14,569.63L332.11,568.60L332.09,567.59L332.06,566.57L332.03,565.54L332.02,565.42L331.97,564.62L331.93,564.48L332.01,564.38" ldp_corner="0 52 251 265 368 411 450 568 599" />
        <path fill="none" ldp_poly="159" ldp_3dx="-333.318970" ldp_3dy="513.854492" ldp_3dz="0.000000" ldp_3drx="0.000000" ldp_3dry="0.000000" ldp_3drz="0.000000" ldp_3drw="1.000000" ldp_cylinder_dir="0" stroke="#231F20" stroke-width="0.476000" stroke-linecap="round" stroke-linejoin="round" stroke-miterlimit="10.000000" d="M336.38,715.75L338.71,715.68L338.76,715.68" ldp_corner="0 2" />
        <path fill="none" ldp_poly="162" ldp_3dx="-333.318970" ldp_3dy="513.854492" ldp_3dz="0.000000" ldp_3drx="0.000000" ldp_3dry="0.000000" ldp_3drz="0.000000" ldp_3drw="1.000000" ldp_cylinder_dir="0" stroke="#231F20" stroke-width="0.476000" stroke-linecap="round" stroke-linejoin="round" stroke-miterlimit="10.000000" d="M361.64,825.62L363.32,823.99L363.35,823.96" ldp_corner="0 2" />
        <path fill="none" ldp_poly="165" ldp_3dx="-333.318970" ldp_3dy="513.854492" ldp_3dz="0.000000" ldp_3drx="0.000000" ldp_3dry="0.000000" ldp_3drz="0.000000" ldp_3drw="1.000000" ldp_cylinder_dir="0" stroke="#231F20" stroke-width="0.476000" stroke-linecap="round" stroke-linejoin="round" stroke-miterlimit="10.000000" d="M334.93,664.98L337.27,664.92L337.31,664.92" ldp_corner="0 2" />
        <path fill="none" ldp_poly="168" ldp_3dx="-333.318970" ldp_3dy="513.854492" ldp_3dz="0.000000" ldp_3drx="0.000000" ldp_3dry="0.000000" ldp_3drz="0.000000" ldp_3drw="1.000000" ldp_cylinder_dir="0" stroke="#231F20" stroke-width="0.476000" stroke-linecap="round" stroke-linejoin="round" stroke-miterlimit="10.000000" d="M423.03,743.09L438.34,743.40" ldp_corner="0 1" />
        <path fill="none" ldp_poly="171" ldp_3dx="-297.161011" ldp_3dy="442.604004" ldp_3dz="0.000000" ldp_3drx="0.000000" ldp_3dry="0.000000" ldp_3drz="0.000000" ldp_3drw="1.000000" ldp_cylinder_dir="0" stroke="#231F20" stroke-width="0.476000" stroke-linecap="round" stroke-linejoin="round" stroke-miterlimit="10.000000" d="M189.64,567.49L189.70,568.45L189.70,569.49L189.70,570.51L189.70,571.53L189.70,572.55L189.70,573.57L189.70,574.60L189.70,575.61L189.70,576.63L189.70,577.66L189.70,578.68L189.70,579.70L189.70,580.72L189.70,581.74L189.70,582.76L189.70,583.79L189.70,584.80L189.70,585.83L189.70,586.85L189.70,587.87L189.70,588.89L189.70,589.91L189.70,590.94L189.70,591.96L189.70,592.97L189.70,594.00L189.70,595.02L189.70,596.04L189.70,597.06L189.70,598.08L189.70,599.11L189.70,600.12L189.70,601.15L189.70,602.17L189.70,603.19L189.70,604.21L189.70,605.23L189.70,606.26L189.70,607.28L189.70,608.30L189.70,609.32L189.70,610.34L189.70,611.36L189.70,612.38L189.70,613.40L189.70,614.43L189.70,615.45L189.70,616.47L189.70,617.49L189.70,618.51L189.70,619.53L189.70,620.55L189.70,621.57L189.70,622.59L189.70,623.62L189.70,624.64L189.70,625.66L189.70,626.68L189.70,627.70L189.70,628.72L189.70,629.74L189.70,630.76L189.70,631.79L189.70,632.81L189.70,633.83L189.70,634.85L189.70,635.87L189.70,636.89L189.70,637.92L189.70,638.93L189.70,639.96L189.70,640.98L189.70,642.00L189.70,643.02L189.70,644.04L189.70,645.07L189.70,646.08L189.70,647.11L189.70,648.13L189.70,649.15L189.70,650.17L189.70,651.19L189.70,652.21L189.70,653.24L189.70,654.26L189.70,655.28L189.70,656.30L189.70,657.32L189.70,658.34L189.70,659.36L189.70,660.38L189.70,661.41L189.70,662.43L189.70,663.44L189.70,664.47L189.70,665.49L189.70,666.51L189.70,667.53L189.70,668.55L189.70,669.58L189.70,670.60L189.70,671.62L189.70,672.64L189.70,673.66L189.70,674.68L189.70,675.70L189.70,676.72L189.70,677.74L189.70,678.77L189.70,679.79L189.70,680.81L189.70,681.83L189.70,682.85L189.70,683.88L189.70,684.89L189.70,685.92L189.70,686.94L189.70,687.96L189.70,688.98L189.70,690.00L189.70,691.03L189.70,692.04L189.70,693.06L189.70,694.09L189.70,695.11L189.70,696.13L189.70,697.15L189.70,698.17L189.70,699.20L189.70,700.21L189.70,701.23L189.70,702.26L189.70,703.28L189.70,704.30L189.70,705.32L189.70,706.34L189.70,707.36L189.70,708.39L189.70,709.40L189.70,710.43L189.70,711.45L189.70,712.47L189.70,713.49L189.70,714.51L189.70,715.53L189.70,716.56L189.70,717.57L189.70,718.60L189.70,719.62L189.70,720.64L189.70,721.66L189.70,722.68L189.70,723.71L189.70,724.72L189.70,725.75L189.70,726.77L189.70,727.79L189.70,728.81L189.70,729.83L189.70,730.85L189.70,731.87L189.70,732.90L189.70,733.91L189.70,734.94L189.70,735.96L189.70,736.98L189.70,738.00L189.70,739.02L189.70,740.05L189.70,741.07L189.70,742.09L189.70,743.11L189.70,744.13L189.70,745.15L189.70,746.17L189.70,747.19L189.70,748.21L189.70,749.24L189.70,750.26L189.70,751.28L189.70,752.30L189.70,753.32L189.70,754.34L189.70,755.36L189.70,756.39L189.70,757.41L189.70,758.43L189.70,759.45L189.70,760.47L189.70,761.49L189.70,762.51L189.70,763.53L189.70,764.56L189.70,765.58L189.70,766.60L189.70,767.62L189.70,768.64L189.70,769.67L189.70,770.68L189.70,771.71L189.70,772.73L189.70,773.75L189.70,774.77L189.70,775.79L189.70,776.81L189.70,777.83L189.70,778.86L189.70,779.87L189.70,780.90L189.70,781.92L189.70,782.94L189.70,783.96L189.70,784.98L189.70,786.00L189.70,787.03L189.70,788.04L189.70,789.07L189.70,790.09L189.70,791.11L189.70,792.13L189.70,793.15L189.70,794.17L189.70,795.20L189.70,796.22L189.70,797.24L189.70,798.26L189.70,799.28L189.70,800.30L189.70,801.32L189.70,802.34L189.70,803.37L189.70,804.39L189.70,805.41L189.70,806.43L189.70,807.45L189.70,808.47L189.70,809.49L189.70,810.51L189.70,811.54L189.70,812.56L189.70,813.58L189.70,814.60L189.70,815.62L189.70,816.64L189.70,817.66L189.70,818.69L189.70,819.71L189.70,820.73L189.70,821.75L189.70,822.77L189.70,823.79L189.70,824.81L189.70,825.83L189.70,826.86L189.70,827.88L189.70,828.90L189.70,829.92L189.70,830.94L189.70,831.96L189.70,832.98L189.70,834.00L189.70,835.03L189.70,836.05L189.70,837.07L189.70,838.09L189.70,839.11L189.70,840.13L189.70,841.16L189.70,842.18L189.70,843.20L189.70,844.22L189.70,845.24L189.70,846.26L189.70,847.28L189.70,848.30L189.70,849.33L189.70,850.34L189.70,851.37L189.70,852.39L189.70,853.41L189.70,854.43L189.70,855.45L189.70,856.47L189.70,857.50L189.70,858.52L189.70,859.54L189.70,860.56L189.70,861.58L189.70,862.60L189.70,863.62L189.70,864.65L189.70,865.67L189.70,866.69L189.70,867.71L189.70,868.73L189.70,869.75L189.70,870.77L189.70,871.79L189.70,872.82L189.70,873.84L189.70,874.86L189.70,875.88L189.70,876.90L189.70,877.92L189.70,878.94L189.70,879.96L189.70,880.99L189.70,882.01L189.76,882.94L190.77,883.13L191.76,883.13L192.78,883.13L193.79,883.14L194.80,883.16L195.89,883.18L196.95,883.22L198.01,883.27L199.06,883.33L200.12,883.41L201.17,883.50L202.22,883.62L203.28,883.76L204.32,883.92L205.36,884.10L206.39,884.33L207.42,884.58L208.45,884.85L209.46,885.16L210.47,885.49L211.49,885.86L212.42,886.20L213.36,886.58L214.30,886.99L215.23,887.44L216.14,887.93L217.03,888.46L217.90,889.03L218.74,889.65L219.55,890.30L220.32,891.00L221.07,891.73L221.78,892.50L222.47,893.24L223.52,893.11L224.49,892.88L225.49,892.63L226.48,892.38L227.47,892.14L228.47,891.89L229.46,891.64L230.46,891.40L231.45,891.15L232.45,890.91L233.44,890.66L234.44,890.42L235.43,890.17L236.43,889.92L237.42,889.68L238.42,889.43L239.41,889.18L240.41,888.94L241.40,888.69L242.40,888.45L243.39,888.20L244.39,887.96L245.38,887.71L246.38,887.46L247.37,887.22L248.37,886.97L249.36,886.73L250.36,886.48L251.35,886.23L252.35,885.99L253.34,885.74L254.34,885.50L255.33,885.25L256.33,885.00L257.32,884.76L258.31,884.51L259.31,884.26L260.22,883.98L260.27,882.95L260.16,881.96L260.06,880.95L259.96,879.94L259.86,878.91L259.78,877.90L259.70,876.88L259.63,875.87L259.57,874.85L259.52,873.83L259.47,872.82L259.43,871.81L259.40,870.79L259.38,869.77L259.36,868.76L259.35,867.73L259.35,866.72L259.36,865.71L259.37,864.67L259.39,863.65L259.42,862.62L259.45,861.59L259.50,860.57L259.55,859.54L259.60,858.51L259.66,857.49L259.72,856.47L259.79,855.44L259.86,854.42L259.93,853.40L260.01,852.39L260.09,851.37L260.18,850.35L260.28,849.34L260.38,848.32L260.49,847.31L260.60,846.30L260.72,845.29L260.86,844.24L261.00,843.21L261.15,842.18L261.30,841.14L261.47,840.12L261.64,839.09L261.83,838.06L262.02,837.03L262.22,836.01L262.43,834.97L262.67,834.01L262.93,833.02L263.19,832.03L263.45,831.04L263.71,830.07L263.99,829.09L264.27,828.12L264.57,827.12L264.88,826.14L265.22,825.16L265.57,824.19L265.94,823.23L266.33,822.28L266.75,821.35L267.20,820.43L267.68,819.52L268.22,818.61L268.72,817.86L268.80,817.75L269.30,817.07L269.38,816.97L269.92,816.32L270.00,816.22L270.57,815.59L270.66,815.50L271.25,814.90L271.34,814.82L271.97,814.24L272.07,814.16L272.72,813.62L272.82,813.54L273.49,813.05L274.37,812.47L275.26,811.96L276.17,811.49L277.10,811.06L278.05,810.68L279.02,810.33L279.99,810.02L281.03,809.73L282.05,809.49L283.09,809.27L284.14,809.08L285.20,808.92L286.25,808.80L287.32,808.69L288.38,808.61L289.45,808.55L290.46,808.46L290.66,807.45L290.72,806.45L290.77,805.43L290.82,804.41L290.88,803.38L290.93,802.36L290.98,801.34L291.04,800.31L291.09,799.29L291.14,798.27L291.19,797.24L291.25,796.22L291.30,795.20L291.35,794.18L291.41,793.15L291.46,792.13L291.51,791.10L291.57,790.08L291.62,789.06L291.67,788.03L291.72,787.01L291.78,785.99L291.83,784.97L291.88,783.94L291.94,782.92L291.99,781.90L292.04,780.87L292.09,779.85L292.15,778.83L292.20,777.81L292.25,776.78L292.31,775.76L292.36,774.74L292.41,773.71L292.47,772.69L292.52,771.66L292.57,770.65L292.62,769.62L292.68,768.59L292.73,767.57L292.78,766.55L292.84,765.53L292.89,764.50L292.94,763.48L293.00,762.45L293.05,761.44L293.10,760.41L293.16,759.39L293.21,758.36L293.26,757.34L293.31,756.32L293.37,755.30L293.42,754.27L293.47,753.25L293.53,752.23L293.58,751.20L293.63,750.18L293.69,749.15L293.74,748.13L293.79,747.11L293.85,746.09L293.90,745.06L293.95,744.04L294.00,743.02L294.06,742.00L294.11,740.97L294.16,739.95L294.22,738.92L294.27,737.90L294.32,736.88L294.38,735.86L294.43,734.83L294.48,733.81L294.53,732.79L294.59,731.76L294.64,730.74L294.69,729.71L294.75,728.69L294.80,727.67L294.85,726.65L294.90,725.62L294.96,724.60L295.01,723.58L295.06,722.55L295.12,721.53L295.17,720.51L295.22,719.49L295.28,718.46L295.33,717.44L295.38,716.42L295.43,715.39L295.49,714.37L295.54,713.35L295.59,712.32L295.65,711.30L295.70,710.28L295.75,709.25L295.81,708.23L295.86,707.21L295.91,706.18L295.96,705.16L296.02,704.14L296.07,703.12L296.12,702.09L296.18,701.07L296.23,700.05L296.28,699.02L296.34,698.00L296.39,696.98L296.44,695.95L296.50,694.93L296.55,693.91L296.60,692.88L296.65,691.86L296.71,690.84L296.76,689.81L296.81,688.79L296.87,687.77L296.92,686.74L296.97,685.72L297.03,684.70L297.08,683.67L297.13,682.65L297.19,681.64L297.24,680.62L297.29,679.60L297.34,678.58L297.40,677.57L297.45,676.55L297.50,675.52L297.55,674.51L297.61,673.49L297.66,672.47L297.71,671.46L297.76,670.44L297.82,669.42L297.87,668.40L297.92,667.38L297.98,666.36L298.03,665.35L298.08,664.33L298.13,663.31L298.19,662.29L298.24,661.27L298.29,660.25L298.35,659.24L298.40,658.22L298.45,657.20L298.50,656.18L298.56,655.16L298.61,654.14L298.66,653.13L298.71,652.11L298.77,651.09L298.82,650.08L298.87,649.05L298.92,648.03L298.98,647.02L299.03,646.00L299.08,644.98L299.14,643.97L299.19,642.94L299.24,641.92L299.29,640.91L299.35,639.89L299.40,638.87L299.45,637.86L299.51,636.83L299.56,635.82L299.61,634.80L299.66,633.78L299.72,632.76L299.77,631.75L299.82,630.73L299.87,629.71L299.93,628.69L299.98,627.67L300.03,626.65L300.08,625.64L300.14,624.62L300.19,623.60L300.24,622.58L300.30,621.56L300.35,620.54L300.40,619.53L300.46,618.51L300.51,617.49L300.56,616.47L300.61,615.45L300.67,614.43L300.72,613.42L300.77,612.40L300.82,611.38L300.88,610.36L300.93,609.35L300.98,608.32L301.04,607.31L301.09,606.29L301.14,605.27L301.19,604.25L301.25,603.24L301.30,602.21L301.35,601.20L301.40,600.18L301.46,599.16L301.51,598.15L301.56,597.13L301.62,596.11L301.67,595.09L301.72,594.07L301.78,593.05L301.83,592.04L301.88,591.02L301.93,590.00L301.99,588.98L302.04,587.96L302.09,586.94L302.14,585.93L302.20,584.91L302.25,583.89L302.30,582.87L302.35,581.85L302.41,580.83L302.46,579.82L302.51,578.80L302.56,577.78L302.62,576.76L302.67,575.74L302.72,574.72L302.78,573.71L302.83,572.69L302.88,571.67L302.93,570.65L302.93,569.71L301.93,569.40L300.96,569.34L299.94,569.30L298.93,569.26L297.92,569.22L296.90,569.18L295.89,569.14L294.88,569.10L293.87,569.06L292.85,569.02L291.84,568.98L290.82,568.94L289.81,568.90L288.80,568.86L287.79,568.82L286.77,568.77L285.76,568.73L284.75,568.69L283.73,568.65L282.72,568.61L281.71,568.57L280.69,568.53L279.68,568.49L278.67,568.45L277.66,568.41L276.64,568.37L275.63,568.33L274.61,568.29L273.60,568.25L272.59,568.21L271.58,568.16L270.56,568.12L269.55,568.08L268.54,568.04L267.52,568.00L266.52,567.96L265.50,567.92L264.48,567.88L263.48,567.84L262.46,567.80L261.45,567.76L260.43,567.72L259.42,567.68L258.40,567.64L257.40,567.59L256.38,567.55L255.37,567.51L254.35,567.47L253.34,567.43L252.33,567.39L251.32,567.35L250.30,567.31L249.29,567.27L248.27,567.23L247.27,567.19L246.25,567.15L245.24,567.11L244.23,567.07L243.21,567.02L242.20,566.98L241.19,566.94L240.18,566.90L239.16,566.86L238.24,566.82L189.76,566.89L189.76,566.89L189.64,567.49" ldp_corner="309 343 381 478 712" />
        <path fill="none" ldp_poly="181" ldp_3dx="-297.161011" ldp_3dy="442.604004" ldp_3dz="0.000000" ldp_3drx="0.000000" ldp_3dry="0.000000" ldp_3drz="0.000000" ldp_3drw="1.000000" ldp_cylinder_dir="0" stroke="#231F20" stroke-width="0.476000" stroke-linecap="round" stroke-linejoin="round" stroke-miterlimit="10.000000" d="M295.08,720.70L292.75,720.58L292.71,720.57" ldp_corner="0 2" />
        <path fill="none" ldp_poly="184" ldp_3dx="-297.161011" ldp_3dy="442.604004" ldp_3dz="0.000000" ldp_3drx="0.000000" ldp_3dry="0.000000" ldp_3drz="0.000000" ldp_3drw="1.000000" ldp_cylinder_dir="0" stroke="#231F20" stroke-width="0.476000" stroke-linecap="round" stroke-linejoin="round" stroke-miterlimit="10.000000" d="M205.12,747.18L189.77,747.24" ldp_corner="0 1" />
        <path fill="none" ldp_poly="187" ldp_3dx="-297.161011" ldp_3dy="442.604004" ldp_3dz="0.000000" ldp_3drx="0.000000" ldp_3dry="0.000000" ldp_3drz="0.000000" ldp_3drw="1.000000" ldp_cylinder_dir="0" stroke="#231F20" stroke-width="0.476000" stroke-linecap="round" stroke-linejoin="round" stroke-miterlimit="10.000000" d="M297.71,669.99L295.38,669.87L295.34,669.86" ldp_corner="0 2" />
        <path fill="none" ldp_poly="190" ldp_3dx="-379.955994" ldp_3dy="323.135498" ldp_3dz="0.000000" ldp_3drx="0.000000" ldp_3dry="0.000000" ldp_3drz="0.000000" ldp_3drw="1.000000" ldp_cylinder_dir="0" stroke="#231F20" stroke-width="0.476000" stroke-linecap="round" stroke-linejoin="round" stroke-miterlimit="10.000000" d="M379.44,801.52L380.35,801.65L379.56,801.26L379.51,801.24" ldp_corner="0 1 3" />
        <path fill="none" ldp_poly="195" ldp_3dx="-379.955994" ldp_3dy="323.135498" ldp_3dz="0.000000" ldp_3drx="0.000000" ldp_3dry="0.000000" ldp_3drz="0.000000" ldp_3drw="1.000000" ldp_cylinder_dir="0" stroke="#231F20" stroke-width="0.476000" stroke-linecap="round" stroke-linejoin="round" stroke-miterlimit="10.000000" d="M379.44,801.64L378.43,801.61L377.41,801.64L376.38,801.66L375.37,801.63L375.32,801.63" ldp_corner="0 5" />
        <path fill="none" ldp_poly="198" ldp_3dx="-379.955994" ldp_3dy="323.135498" ldp_3dz="0.000000" ldp_3drx="0.000000" ldp_3dry="0.000000" ldp_3drz="0.000000" ldp_3drw="1.000000" ldp_cylinder_dir="0" stroke="#231F20" stroke-width="0.476000" stroke-linecap="round" stroke-linejoin="round" stroke-miterlimit="10.000000" d="M375.32,801.76L374.31,801.72L373.30,801.69L373.26,801.69" ldp_corner="0 3" />
        <path fill="none" ldp_poly="201" ldp_3dx="-379.955994" ldp_3dy="323.135498" ldp_3dz="0.000000" ldp_3drx="0.000000" ldp_3dry="0.000000" ldp_3drz="0.000000" ldp_3drw="1.000000" ldp_cylinder_dir="0" stroke="#231F20" stroke-width="0.476000" stroke-linecap="round" stroke-linejoin="round" stroke-miterlimit="10.000000" d="M373.27,801.81L372.25,801.78L371.23,801.80L370.20,801.83L369.18,801.86L368.14,801.89L367.14,801.86L367.08,801.86" ldp_corner="0 7" />
        <path fill="none" ldp_poly="204" ldp_3dx="-379.955994" ldp_3dy="323.135498" ldp_3dz="0.000000" ldp_3drx="0.000000" ldp_3dry="0.000000" ldp_3drz="0.000000" ldp_3drw="1.000000" ldp_cylinder_dir="0" stroke="#231F20" stroke-width="0.476000" stroke-linecap="round" stroke-linejoin="round" stroke-miterlimit="10.000000" d="M367.09,801.98L366.08,801.95L365.05,801.98L364.03,802.00L363.00,802.03L361.96,802.06L360.96,802.03L360.91,802.03" ldp_corner="0 7" />
        <path fill="none" ldp_poly="207" ldp_3dx="-379.955994" ldp_3dy="323.135498" ldp_3dz="0.000000" ldp_3drx="0.000000" ldp_3dry="0.000000" ldp_3drz="0.000000" ldp_3drw="1.000000" ldp_cylinder_dir="0" stroke="#231F20" stroke-width="0.476000" stroke-linecap="round" stroke-linejoin="round" stroke-miterlimit="10.000000" d="M360.92,802.15L359.90,802.06L359.88,802.05" ldp_corner="0 2" />
        <path fill="none" ldp_poly="210" ldp_3dx="-379.955994" ldp_3dy="323.135498" ldp_3dz="0.000000" ldp_3drx="0.000000" ldp_3dry="0.000000" ldp_3drz="0.000000" ldp_3drw="1.000000" ldp_cylinder_dir="0" stroke="#231F20" stroke-width="0.476000" stroke-linecap="round" stroke-linejoin="round" stroke-miterlimit="10.000000" d="M359.88,802.18L358.87,802.15L357.85,802.17L356.82,802.20L355.79,802.23L354.76,802.25L353.76,802.23L353.70,802.22" ldp_corner="0 7" />
        <path fill="none" ldp_poly="213" ldp_3dx="-379.955994" ldp_3dy="323.135498" ldp_3dz="0.000000" ldp_3drx="0.000000" ldp_3dry="0.000000" ldp_3drz="0.000000" ldp_3drw="1.000000" ldp_cylinder_dir="0" stroke="#231F20" stroke-width="0.476000" stroke-linecap="round" stroke-linejoin="round" stroke-miterlimit="10.000000" d="M353.71,802.35L352.70,802.32L351.68,802.34L350.65,802.37L349.62,802.40L348.59,802.43L347.56,802.45L346.53,802.48L345.50,802.51L344.47,802.54L343.44,802.57L342.41,802.60L341.39,802.63L340.35,802.65L339.32,802.68L338.30,802.71L337.26,802.74L336.24,802.76L335.24,802.73L335.18,802.73" ldp_corner="0 19" />
        <path fill="none" ldp_poly="216" ldp_3dx="-379.955994" ldp_3dy="323.135498" ldp_3dz="0.000000" ldp_3drx="0.000000" ldp_3dry="0.000000" ldp_3drz="0.000000" ldp_3drw="1.000000" ldp_cylinder_dir="0" stroke="#231F20" stroke-width="0.476000" stroke-linecap="round" stroke-linejoin="round" stroke-miterlimit="10.000000" d="M338.34,784.94L339.26,785.37L340.21,785.75L341.16,786.13L342.12,786.51L343.08,786.89L344.03,787.27L344.99,787.64L345.95,788.02L346.91,788.40L347.87,788.78L348.82,789.16L349.78,789.54L350.74,789.92L351.69,790.30L352.65,790.68L353.61,791.06L354.57,791.43L355.53,791.81L356.48,792.19L357.44,792.57L358.40,792.95L359.35,793.33L360.31,793.71L361.27,794.09L362.23,794.47L363.18,794.84L364.14,795.22L365.10,795.60L366.06,795.98L367.02,796.36L367.97,796.74L368.93,797.12L369.89,797.50L370.85,797.88L371.80,798.25L372.76,798.63L373.72,799.01L374.68,799.39L375.63,799.77L376.59,800.15L377.55,800.53L378.51,800.91L379.41,801.33L379.47,801.36" ldp_corner="0 44" />
        <path fill="none" ldp_poly="219" ldp_3dx="-395.191498" ldp_3dy="106.260498" ldp_3dz="0.000000" ldp_3drx="0.000000" ldp_3dry="0.000000" ldp_3drz="0.000000" ldp_3drw="1.000000" ldp_cylinder_dir="0" stroke="#231F20" stroke-width="0.476000" stroke-linecap="round" stroke-linejoin="round" stroke-miterlimit="10.000000" d="M1045.07,106.00L1045.47,106.86L1045.91,107.69L1046.37,108.54L1046.82,109.38L1047.29,110.32L1047.33,110.43L1047.49,111.05L1047.51,111.25L1047.48,111.79L1047.45,111.97L1047.14,112.67L1047.02,112.82L1046.73,113.16L1046.63,113.25L1045.78,113.85L1044.98,114.40L1044.17,114.98L1043.38,115.57L1042.59,116.18L1041.82,116.80L1041.05,117.44L1040.30,118.09L1039.56,118.75L1038.84,119.41L1038.09,120.13L1037.36,120.85L1036.65,121.58L1035.95,122.33L1035.27,123.08L1034.59,123.85L1033.93,124.62L1033.28,125.41L1032.64,126.20L1032.01,127.01L1031.40,127.82L1030.78,128.64L1030.18,129.48L1029.59,130.32L1029.01,131.17L1028.44,132.02L1027.88,132.88L1027.33,133.75L1026.79,134.63L1026.27,135.51L1025.75,136.40L1025.25,137.27L1024.76,138.16L1024.28,139.05L1023.82,139.94L1023.35,140.85L1022.91,141.75L1022.46,142.66L1022.03,143.58L1021.61,144.49L1021.20,145.42L1020.79,146.36L1020.40,147.29L1020.01,148.24L1019.63,149.19L1019.27,150.13L1018.91,151.09L1018.56,152.04L1018.21,153.00L1017.88,153.97L1017.56,154.93L1017.24,155.90L1016.93,156.87L1016.63,157.84L1016.33,158.83L1016.03,159.77L1015.72,160.73L1015.41,161.68L1015.10,162.63L1014.79,163.58L1014.48,164.53L1014.17,165.48L1013.85,166.44L1013.54,167.39L1013.23,168.33L1012.91,169.31L1012.59,170.28L1012.27,171.25L1011.95,172.22L1011.62,173.21L1011.33,174.10L1011.03,175.03L1010.72,175.96L1010.42,176.88L1010.12,177.81L1009.81,178.73L1009.51,179.66L1009.20,180.57L1008.77,181.49L1007.94,181.30L1007.00,180.99L1006.08,180.69L1005.15,180.39L1004.22,180.08L1003.32,179.78L1002.40,179.35L1002.59,178.51L1002.90,177.57L1003.20,176.64L1003.51,175.72L1003.81,174.79L1004.12,173.86L1004.42,172.94L1004.72,172.01L1005.03,171.10L1005.34,170.12L1005.66,169.17L1005.97,168.21L1006.29,167.26L1006.60,166.30L1006.91,165.34L1007.23,164.38L1007.54,163.43L1007.86,162.47L1008.17,161.52L1008.48,160.56L1008.79,159.62L1009.11,158.59L1009.42,157.58L1009.74,156.58L1010.05,155.57L1010.38,154.56L1010.70,153.56L1011.03,152.56L1011.38,151.56L1011.72,150.56L1012.09,149.56L1012.43,148.62L1012.80,147.66L1013.18,146.72L1013.56,145.79L1014.00,144.79L1014.42,143.82L1014.85,142.85L1015.28,141.88L1015.71,140.91L1016.14,139.93L1016.57,138.96L1017.03,138.02L1017.50,137.08L1017.98,136.15L1018.47,135.23L1018.97,134.31L1019.48,133.39L1020.00,132.49L1020.53,131.59L1021.08,130.69L1021.63,129.79L1022.18,128.95L1022.74,128.09L1023.31,127.24L1023.89,126.41L1024.48,125.56L1025.08,124.74L1025.69,123.92L1026.31,123.11L1026.94,122.30L1027.58,121.51L1028.22,120.71L1028.88,119.93L1029.54,119.15L1030.21,118.38L1030.90,117.63L1031.59,116.87L1032.30,116.14L1033.01,115.40L1033.73,114.68L1034.47,113.97L1035.20,113.27L1035.93,112.59L1036.69,111.91L1037.45,111.25L1038.23,110.60L1039.02,109.97L1039.82,109.35L1040.64,108.75L1041.46,108.17L1042.29,107.61L1043.16,107.06L1044.01,106.54L1045.04,106.02L1045.07,106.00" ldp_corner="0 93 100" />
    </g>
</svg>
